<?xml version="1.0" standalone="no"?>
<!DOCTYPE svg PUBLIC "-//W3C//DTD SVG 1.1//EN" "http://www.w3.org/Graphics/SVG/1.1/DTD/svg11.dtd" >
<svg xmlns="http://www.w3.org/2000/svg" xmlns:xlink="http://www.w3.org/1999/xlink" version="1.1">
<metadata>
Created by FontForge 20170731 at Thu Apr 13 03:28:59 2017
 By Aleksey,,,
(c) 2017 Itau' Intellectual Property. All rights reserved. Copyright (c) 2017 Itau'. Todos os direitos reservados.
</metadata>
<defs>
<font id="ItauText-Bold" horiz-adv-x="405" >
  <font-face 
    font-family="Itau Text"
    font-weight="700"
    font-stretch="normal"
    units-per-em="1000"
    panose-1="2 11 7 3 2 2 4 2 2 3"
    ascent="745"
    descent="-255"
    x-height="519"
    cap-height="675"
    bbox="-232 -263 1000 917"
    underline-thickness="68"
    underline-position="-219"
    unicode-range="U+0008-FEFF"
  />
<missing-glyph horiz-adv-x="500" 
d="M50 0v750h400v-750h-400zM100 50h300v650h-300v-650z" />
    <glyph glyph-name=".notdef" horiz-adv-x="500" 
d="M50 0v750h400v-750h-400zM100 50h300v650h-300v-650z" />
    <glyph glyph-name=".null" horiz-adv-x="0" 
 />
    <glyph glyph-name=".null" horiz-adv-x="0" 
 />
    <glyph glyph-name=".null" horiz-adv-x="0" 
 />
    <glyph glyph-name="nonmarkingreturn" unicode="&#x9;" horiz-adv-x="233" 
 />
    <glyph glyph-name="nonmarkingreturn" unicode="&#xd;" horiz-adv-x="233" 
 />
    <glyph glyph-name="space" unicode=" " horiz-adv-x="233" 
 />
    <glyph glyph-name="exclam" unicode="!" horiz-adv-x="306" 
d="M91 675h123l-12 -474h-99zM153 -8q-32 0 -52.5 20.5t-20.5 51.5q0 32 21 53t52 21t52 -21t21 -53q0 -31 -20.5 -51.5t-52.5 -20.5z" />
    <glyph glyph-name="quotedbl" unicode="&#x22;" horiz-adv-x="423" 
d="M75 425l-11 250h113l-10 -250h-92zM257 425l-11 250h113l-10 -250h-92z" />
    <glyph glyph-name="numbersign" unicode="#" horiz-adv-x="560" 
d="M310 167h-125l-32 -167h-89l32 167h-87v78h102l35 185h-93v78h108l32 167h89l-32 -167h125l32 167h89l-32 -167h87v-78h-102l-35 -185h93v-78h-108l-32 -167h-89zM200 245h125l35 185h-125z" />
    <glyph glyph-name="dollar" unicode="$" horiz-adv-x="560" 
d="M229 -6q-93 6 -164 41v108q95 -48 178 -48q62 0 94.5 23t32.5 66q0 39 -30.5 64.5t-105.5 50.5q-85 29 -124.5 73.5t-39.5 112.5q0 69 42.5 118.5t116.5 66.5v120h93v-111q72 -3 130 -33v-104q-67 38 -142 38q-57 0 -88.5 -22.5t-31.5 -62.5q0 -35 26 -57t96 -46
q97 -33 140 -79.5t43 -117.5q0 -78 -46 -130t-127 -66v-119h-93v114z" />
    <glyph glyph-name="percent" unicode="%" horiz-adv-x="863" 
d="M173 0l412 675h105l-412 -675h-105zM660 -13q-72 0 -115 53.5t-43 141.5q0 89 43.5 143.5t115.5 54.5t115 -53.5t43 -141.5q0 -89 -43.5 -143.5t-115.5 -54.5zM661 64q32 0 50 32.5t18 88.5q0 55 -18 86.5t-50 31.5t-50.5 -32.5t-18.5 -88.5q0 -55 18.5 -86.5t50.5 -31.5
zM202 295q-72 0 -115 53.5t-43 141.5q0 89 43.5 143.5t115.5 54.5t115 -53.5t43 -141.5q0 -89 -43.5 -143.5t-115.5 -54.5zM203 372q32 0 50 32.5t18 88.5q0 55 -18 86.5t-50 31.5t-50.5 -32.5t-18.5 -88.5q0 -55 18.5 -86.5t50.5 -31.5z" />
    <glyph glyph-name="ampersand" unicode="&#x26;" horiz-adv-x="648" 
d="M288 688q79 0 127.5 -42.5t48.5 -111.5q0 -48 -35.5 -92.5t-101.5 -81.5v-9l128 -155h9q33 63 33 149h111q0 -134 -78 -233l95 -112h-140l-31 42h-9q-81 -55 -183 -55q-104 0 -167 49.5t-63 131.5q0 60 34.5 108t110.5 95v9q-38 48 -53 81.5t-15 70.5q0 46 24 81.5
t64.5 55t90.5 19.5zM270 80q66 0 117 38l-153 188q-85 -52 -85 -127q0 -45 32.5 -72t88.5 -27zM288 603q-32 0 -52 -19t-20 -49q0 -26 12 -49.5t44 -64.5q48 29 70.5 56t22.5 56q0 31 -21 50.5t-56 19.5z" />
    <glyph glyph-name="quotesingle" unicode="'" horiz-adv-x="241" 
d="M75 425l-11 250h113l-10 -250h-92z" />
    <glyph glyph-name="parenleft" unicode="(" horiz-adv-x="321" 
d="M189 -124q-61 83 -94 186.5t-33 212.5t33 213t94 187h111q-123 -179 -123 -400q0 -220 123 -399h-111z" />
    <glyph glyph-name="parenright" unicode=")" horiz-adv-x="321" 
d="M21 -124q123 179 123 400q0 220 -123 399h111q61 -83 94 -186.5t33 -212.5t-33 -213t-94 -187h-111z" />
    <glyph glyph-name="asterisk" unicode="*" horiz-adv-x="403" 
d="M52 361l93 105l-3 8l-128 31l32 86l114 -55l8 5l-14 134h96l-14 -134l8 -5l114 55l32 -86l-128 -31l-3 -8l94 -105l-76 -52l-70 118h-10l-70 -118z" />
    <glyph glyph-name="plus" unicode="+" horiz-adv-x="560" 
d="M231 105v185h-177v94h177v186h98v-186h177v-94h-177v-185h-98z" />
    <glyph glyph-name="comma" unicode="," horiz-adv-x="273" 
d="M-6 -128q45 60 66.5 124.5t23.5 141.5h114q0 -75 -27 -143t-78 -123h-99z" />
    <glyph glyph-name="hyphen" unicode="-" 
d="M66 231v100h273v-100h-273z" />
    <glyph glyph-name="period" unicode="." horiz-adv-x="274" 
d="M137 -8q-33 0 -53.5 20.5t-20.5 51.5q0 32 21 53t53 21t53 -21t21 -53q0 -31 -21 -51.5t-53 -20.5z" />
    <glyph glyph-name="slash" unicode="/" horiz-adv-x="369" 
d="M10 -95l247 770h102l-247 -770h-102z" />
    <glyph glyph-name="zero" unicode="0" horiz-adv-x="560" 
d="M279 -13q-116 0 -179.5 92t-63.5 258q0 167 63.5 259t179.5 92t180 -91.5t64 -258.5t-64 -259t-180 -92zM280 88q59 0 90 64.5t31 185.5q0 122 -31 185.5t-91 63.5q-59 0 -90 -64.5t-31 -185.5q0 -122 31 -185.5t91 -63.5z" />
    <glyph glyph-name="one" unicode="1" horiz-adv-x="560" 
d="M102 99h161v454h-9l-158 -95v110l182 107h104v-576h139v-99h-419v99z" />
    <glyph glyph-name="two" unicode="2" horiz-adv-x="560" 
d="M54 87l177 187q65 69 90 113.5t25 91.5q0 50 -32 78.5t-86 28.5q-80 0 -150 -47v101q34 23 79 35.5t93 12.5q98 0 158 -54t60 -141q0 -68 -32.5 -131t-103.5 -134l-116 -118v-9h266v-101h-428v87z" />
    <glyph glyph-name="three" unicode="3" horiz-adv-x="560" 
d="M244 -13q-104 0 -186 44v107q83 -52 169 -52q66 0 102 28.5t36 81.5q0 106 -135 106h-66v96h65q58 0 88.5 26t30.5 74q0 44 -30 67.5t-87 23.5q-78 0 -148 -42v97q74 44 171 44q99 0 157 -48.5t58 -129.5q0 -101 -98 -150v-8q57 -20 87 -61.5t30 -101.5q0 -92 -66.5 -147
t-177.5 -55z" />
    <glyph glyph-name="four" unicode="4" horiz-adv-x="560" 
d="M336 0v142h-305v100l292 433h127v-435h75v-98h-75v-142h-114zM135 240h201v296h-9l-192 -287v-9z" />
    <glyph glyph-name="five" unicode="5" horiz-adv-x="560" 
d="M240 -13q-100 0 -178 44v104q38 -24 81.5 -37.5t83.5 -13.5q67 0 103.5 32.5t36.5 90.5q0 59 -42 89.5t-122 30.5q-54 0 -118 -10l47 358h331v-101h-242l-21 -161q32 4 59 4q105 0 166 -56t61 -151q0 -101 -67 -162t-179 -61z" />
    <glyph glyph-name="six" unicode="6" horiz-adv-x="560" 
d="M289 -13q-116 0 -177.5 80t-61.5 231q0 188 75.5 289t217.5 101q78 0 125 -28v-100q-54 30 -118 30q-91 0 -138 -62t-49 -183h9q20 38 58.5 59t88.5 21q58 0 102.5 -27.5t68.5 -75t24 -107.5q0 -69 -29.5 -121t-80.5 -79.5t-115 -27.5zM289 79q50 0 81 36t31 94t-30 93
t-81 35q-50 0 -82 -35.5t-32 -91.5q0 -59 31 -95t82 -36z" />
    <glyph glyph-name="seven" unicode="7" horiz-adv-x="560" 
d="M373 565v8h-311v102h434v-90l-249 -585h-128z" />
    <glyph glyph-name="eight" unicode="8" horiz-adv-x="560" 
d="M279 -13q-107 0 -172.5 54t-65.5 143q0 58 30 100.5t87 64.5v9q-93 45 -93 147q0 54 29 96t78.5 64.5t109.5 22.5q63 0 112 -24t75 -65.5t26 -93.5q0 -102 -93 -147v-9q57 -22 87 -64t30 -101q0 -60 -31 -104.5t-85 -68.5t-124 -24zM279 82q54 0 87 30t33 80t-32.5 80
t-85.5 30q-55 0 -87.5 -30.5t-32.5 -80.5q0 -49 32 -79t86 -30zM280 396q45 0 72.5 27t27.5 72q0 44 -28 71t-72 27q-45 0 -72.5 -27t-27.5 -72q0 -43 28 -70.5t72 -27.5z" />
    <glyph glyph-name="nine" unicode="9" horiz-adv-x="560" 
d="M271 688q116 0 177.5 -80t61.5 -231q0 -188 -75.5 -289t-217.5 -101q-78 0 -125 28v100q54 -30 118 -30q91 0 138 62t49 183h-9q-20 -38 -58.5 -59t-88.5 -21q-58 0 -102.5 27.5t-68.5 75t-24 107.5q0 69 29.5 121t80.5 79.5t115 27.5zM271 596q-50 0 -81 -36t-31 -94
t30 -93t81 -35q50 0 82 35.5t32 91.5q0 59 -31 95t-82 36z" />
    <glyph glyph-name="colon" unicode=":" horiz-adv-x="274" 
d="M137 -8q-33 0 -53.5 20.5t-20.5 51.5q0 32 21 53t53 21t53 -21t21 -53q0 -31 -21 -51.5t-53 -20.5zM137 345q-33 0 -53.5 20.5t-20.5 51.5q0 32 21 53t53 21t53 -21t21 -53q0 -31 -21 -51.5t-53 -20.5z" />
    <glyph glyph-name="semicolon" unicode=";" horiz-adv-x="273" 
d="M-6 -128q45 60 66.5 124.5t23.5 141.5h114q0 -75 -27 -143t-78 -123h-99zM137 345q-33 0 -53.5 20.5t-20.5 51.5q0 32 21 53t53 21t53 -21t21 -53q0 -31 -21 -51.5t-53 -20.5z" />
    <glyph glyph-name="less" unicode="&#x3c;" horiz-adv-x="560" 
d="M474 101l-409 191v90l409 191v-104l-281 -128v-8l281 -126v-106z" />
    <glyph glyph-name="equal" unicode="=" horiz-adv-x="560" 
d="M75 180v99h410v-99h-410zM75 396v99h410v-99h-410z" />
    <glyph glyph-name="greater" unicode="&#x3e;" horiz-adv-x="560" 
d="M86 573l409 -191v-90l-409 -191v104l281 128v8l-281 126v106z" />
    <glyph glyph-name="question" unicode="?" horiz-adv-x="479" 
d="M151 201q-3 18 -3 32q0 54 19.5 91.5t69.5 77.5q48 37 65 59.5t17 48.5q0 37 -28 57t-80 20q-80 0 -154 -44v101q81 44 171 44q98 0 155 -44.5t57 -121.5q0 -47 -22 -84.5t-71 -74.5q-57 -42 -76 -70t-19 -69v-11t1 -12h-102zM209 -8q-32 0 -52.5 20.5t-20.5 51.5
q0 32 21 53t52 21t52 -21t21 -53q0 -31 -20.5 -51.5t-52.5 -20.5z" />
    <glyph glyph-name="at" unicode="@" horiz-adv-x="965" 
d="M468 -211q-128 0 -223 54.5t-145 151.5t-50 225q0 138 60 244.5t162.5 164t229.5 57.5q124 0 218 -52.5t144.5 -144t50.5 -207.5q0 -82 -26 -146t-69.5 -98.5t-97.5 -34.5q-49 0 -81 24.5t-45 71.5h-8q-19 -47 -53.5 -71.5t-82.5 -24.5q-82 0 -132 62.5t-50 166.5
q0 71 23.5 124.5t64.5 82t94 28.5q40 0 73 -20t53 -57h8l6 67h81v-272q0 -100 54 -100q29 0 51.5 26t35 70t12.5 97q0 99 -42 172.5t-115.5 112.5t-167.5 39q-108 0 -189 -49.5t-124.5 -135t-43.5 -194.5q0 -108 41.5 -187t116.5 -121t175 -42q87 0 163 34l9 -84
q-77 -34 -181 -34zM476 87q48 0 75.5 39.5t27.5 107.5q0 69 -28 109.5t-75 40.5t-75 -40t-28 -109q0 -68 28 -108t75 -40z" />
    <glyph glyph-name="A" unicode="A" horiz-adv-x="665" 
d="M265 675h134l242 -675h-127l-52 158h-264l-51 -158h-123zM230 255h200l-95 296h-9z" />
    <glyph glyph-name="B" unicode="B" horiz-adv-x="602" 
d="M83 675h213q112 0 177.5 -47.5t65.5 -128.5q0 -95 -96 -138v-9q58 -20 89 -59.5t31 -94.5q0 -95 -72 -146.5t-206 -51.5h-202v675zM290 96q73 0 111 27t38 78q0 47 -37 72.5t-105 25.5h-96v-203h89zM293 395q60 0 93 24t33 68t-32 68t-88 24h-98v-184h92z" />
    <glyph glyph-name="C" unicode="C" horiz-adv-x="602" 
d="M368 -13q-100 0 -174 43.5t-113 121.5t-39 180q0 108 43 189t117 124t168 43q45 0 88.5 -11t76.5 -31v-112q-33 22 -73 34.5t-80 12.5q-99 0 -156 -65.5t-57 -177.5q0 -111 58.5 -177.5t155.5 -66.5q89 0 164 53v-112q-77 -48 -179 -48z" />
    <glyph glyph-name="D" unicode="D" horiz-adv-x="674" 
d="M83 675h195q112 0 191.5 -41t121 -116.5t41.5 -179.5q0 -106 -45 -182t-127 -116t-193 -40h-184v675zM206 570v-465h69q111 0 170.5 60.5t59.5 171.5q0 113 -58 173t-166 60h-75z" />
    <glyph glyph-name="E" unicode="E" horiz-adv-x="571" 
d="M83 0v675h418v-102h-297v-179h247v-102h-247v-190h307v-102h-428z" />
    <glyph glyph-name="F" unicode="F" horiz-adv-x="538" 
d="M83 0v675h410v-102h-289v-194h239v-102h-239v-277h-121z" />
    <glyph glyph-name="G" unicode="G" horiz-adv-x="653" 
d="M380 -13q-103 0 -179.5 44t-117.5 122t-41 179q0 108 45 189t123.5 124t179.5 43q49 0 94.5 -11.5t78.5 -31.5v-113q-35 23 -79 36t-86 13q-107 0 -169 -65t-62 -178q0 -115 59.5 -179.5t165.5 -64.5q45 0 81 10v158h-137v102h253v-331q-87 -46 -209 -46z" />
    <glyph glyph-name="H" unicode="H" horiz-adv-x="701" 
d="M83 0v675h123v-276h289v276h123v-675h-123v291h-289v-291h-123z" />
    <glyph glyph-name="I" unicode="I" horiz-adv-x="289" 
d="M83 0v675h123v-675h-123z" />
    <glyph glyph-name="J" unicode="J" horiz-adv-x="470" 
d="M170 -13q-76 0 -131 28v106q49 -28 111 -28q61 0 90.5 33.5t29.5 103.5v445h123v-434q0 -126 -56.5 -190t-166.5 -64z" />
    <glyph glyph-name="K" unicode="K" horiz-adv-x="640" 
d="M83 0v675h123v-282h8l231 282h143l-267 -323l304 -352h-155l-256 301h-8v-301h-123z" />
    <glyph glyph-name="L" unicode="L" horiz-adv-x="538" 
d="M83 0v675h123v-570h292v-105h-415z" />
    <glyph glyph-name="M" unicode="M" horiz-adv-x="850" 
d="M59 0l44 675h143l176 -447h9l174 447h142l44 -675h-117l-26 496h-9l-163 -424h-103l-163 426h-9l-28 -498h-114z" />
    <glyph glyph-name="N" unicode="N" horiz-adv-x="695" 
d="M83 0v675h112l293 -464h9v464h115v-675h-112l-293 464h-9v-464h-115z" />
    <glyph glyph-name="O" unicode="O" horiz-adv-x="702" 
d="M351 94q84 0 133 65.5t49 177.5t-49.5 178t-133.5 66q-56 0 -97 -30t-62.5 -85t-21.5 -128q0 -112 49.5 -178t132.5 -66zM350 -13q-93 0 -163 45t-107.5 124t-37.5 181q0 106 40.5 186t110.5 122.5t159 42.5q93 0 163 -45t107.5 -124t37.5 -181q0 -106 -40.5 -186
t-110.5 -122.5t-159 -42.5z" />
    <glyph glyph-name="P" unicode="P" horiz-adv-x="578" 
d="M83 675h200q124 0 195 -56.5t71 -154.5q0 -104 -71.5 -162.5t-200.5 -58.5h-75v-243h-119v675zM202 576v-234h80q69 0 107 31t38 88q0 56 -37 85.5t-107 29.5h-81z" />
    <glyph glyph-name="Q" unicode="Q" horiz-adv-x="702" 
d="M664 -133q-144 41 -263 82t-184 72q-83 41 -129 124t-46 192q0 106 40.5 186t110.5 122.5t159 42.5q93 0 163 -45t107.5 -124t37.5 -181q0 -81 -27.5 -147t-76.5 -108.5t-113 -56.5v-9q89 -19 221 -42v-108zM351 94q84 0 133 65.5t49 177.5t-49.5 178t-133.5 66
q-56 0 -97 -30t-62.5 -85t-21.5 -128q0 -112 49.5 -178t132.5 -66z" />
    <glyph glyph-name="R" unicode="R" horiz-adv-x="614" 
d="M83 0v675h200q121 0 192 -55.5t71 -150.5q0 -67 -38.5 -118t-107.5 -75l192 -276h-140l-169 257h-81v-257h-119zM202 576v-222h80q66 0 104 29.5t38 83.5q0 52 -36.5 80.5t-104.5 28.5h-81z" />
    <glyph glyph-name="S" unicode="S" horiz-adv-x="526" 
d="M245 -13q-112 0 -199 43v111q98 -50 182 -50q63 0 98 24.5t35 69.5q0 39 -31.5 63t-118.5 53q-80 27 -119.5 73.5t-39.5 114.5q0 90 66 144.5t176 54.5q84 0 150 -32v-106q-67 35 -146 35q-59 0 -91.5 -23t-32.5 -64q0 -36 29.5 -59.5t107.5 -48.5q91 -30 133.5 -78
t42.5 -120q0 -94 -65.5 -149.5t-176.5 -55.5z" />
    <glyph glyph-name="T" unicode="T" horiz-adv-x="581" 
d="M229 0v570h-202v105h527v-105h-202v-570h-123z" />
    <glyph glyph-name="U" unicode="U" horiz-adv-x="684" 
d="M343 -13q-124 0 -195 75t-71 207v406h123v-402q0 -85 37 -131.5t106 -46.5q66 0 103.5 46t37.5 127v407h123v-397q0 -90 -33 -156t-92.5 -100.5t-138.5 -34.5z" />
    <glyph glyph-name="V" unicode="V" horiz-adv-x="648" 
d="M24 675h132l166 -534h9l163 534h130l-232 -675h-135z" />
    <glyph glyph-name="W" unicode="W" horiz-adv-x="894" 
d="M24 675h128l112 -517h9l114 487h123l115 -486h9l111 516h125l-172 -675h-133l-114 485h-9l-114 -485h-131z" />
    <glyph glyph-name="X" unicode="X" horiz-adv-x="624" 
d="M24 0l213 351l-202 324h142l133 -234h9l133 234h135l-201 -327l214 -348h-143l-145 253h-9l-143 -253h-136z" />
    <glyph glyph-name="Y" unicode="Y" horiz-adv-x="602" 
d="M240 264l-227 411h134l152 -300h9l151 300h130l-226 -412v-263h-123v264z" />
    <glyph glyph-name="Z" unicode="Z" horiz-adv-x="581" 
d="M51 0v91l328 472v8h-314v104h463v-91l-328 -472v-8h340v-104h-489z" />
    <glyph glyph-name="bracketleft" unicode="[" horiz-adv-x="343" 
d="M105 -124v799h210v-88h-102v-623h102v-88h-210z" />
    <glyph glyph-name="backslash" unicode="\" horiz-adv-x="369" 
d="M257 -95l-247 770h102l247 -770h-102z" />
    <glyph glyph-name="bracketright" unicode="]" horiz-adv-x="343" 
d="M28 -36h102v623h-102v88h210v-799h-210v88z" />
    <glyph glyph-name="asciicircum" unicode="^" horiz-adv-x="560" 
d="M40 264l195 411h90l195 -411h-112l-124 292h-9l-124 -292h-111z" />
    <glyph glyph-name="underscore" unicode="_" horiz-adv-x="500" 
d="M0 -73h500v-88h-500v88z" />
    <glyph glyph-name="grave" unicode="`" horiz-adv-x="500" 
d="M131 745h131l107 -156h-106z" />
    <glyph glyph-name="a" unicode="a" horiz-adv-x="544" 
d="M213 -13q-76 0 -121.5 41.5t-45.5 109.5q0 88 70 136t199 48q11 0 21.5 -0.5t21.5 -0.5q-4 113 -120 113q-74 0 -148 -42v97q80 43 166 43q105 0 161.5 -57.5t56.5 -164.5v-310h-100l-7 62h-9q-22 -35 -60.5 -55t-84.5 -20zM246 73q47 0 80 33.5t33 81.5v52q-13 1 -42 1
q-76 0 -116.5 -23t-40.5 -67q0 -35 23.5 -56.5t62.5 -21.5z" />
    <glyph glyph-name="b" unicode="b" horiz-adv-x="596" 
d="M334 -13q-92 0 -142 81h-8l-7 -68h-101v720h120v-265h9q22 36 58.5 56.5t80.5 20.5q65 0 112.5 -34t72.5 -95t25 -141q0 -126 -59.5 -200.5t-160.5 -74.5zM312 86q57 0 89 46t32 127t-32.5 127.5t-88.5 46.5q-55 0 -87 -46t-32 -126q0 -81 32 -128t87 -47z" />
    <glyph glyph-name="c" unicode="c" horiz-adv-x="479" 
d="M294 -13q-116 0 -184 73.5t-68 198.5q0 83 33 145t91 95t132 33t124 -29v-100q-47 30 -111 30q-69 0 -108.5 -46.5t-39.5 -126.5t40 -127t109 -47q67 0 117 32v-100q-58 -31 -135 -31z" />
    <glyph glyph-name="d" unicode="d" horiz-adv-x="596" 
d="M252 -13q-95 0 -152.5 73.5t-57.5 196.5q0 125 58.5 200t156.5 75q41 0 75.5 -19t58.5 -54h9v261h120v-720h-105l-7 73h-9q-21 -41 -59.5 -63.5t-87.5 -22.5zM284 86q55 0 87.5 46t32.5 126q0 81 -32.5 128t-87.5 47q-56 0 -88.5 -46t-32.5 -127q0 -82 32.5 -128
t88.5 -46z" />
    <glyph glyph-name="e" unicode="e" horiz-adv-x="546" 
d="M300 -13q-121 0 -189.5 72.5t-68.5 201.5q0 82 30.5 143.5t83.5 94.5t122 33q101 0 158.5 -68t57.5 -188v-55h-337q9 -67 49.5 -102.5t108.5 -35.5q77 0 147 39v-97q-69 -38 -162 -38zM273 439q-50 0 -80 -34.5t-37 -99.5h227q-2 64 -31 99t-79 35z" />
    <glyph glyph-name="f" unicode="f" horiz-adv-x="408" 
d="M110 426h-92v93h92v18q0 94 52.5 145t149.5 51q42 0 76 -12v-95q-33 11 -64 11q-94 0 -94 -96v-22h140v-93h-140v-426h-120v426z" />
    <glyph glyph-name="g" unicode="g" horiz-adv-x="597" 
d="M262 -198q-47 0 -90.5 10t-77.5 29v101q71 -41 155 -41q152 0 152 156v20h-9q-23 -36 -59.5 -55.5t-80.5 -19.5q-64 0 -111.5 33t-73 91.5t-25.5 134.5q0 124 59.5 197.5t159.5 73.5q92 0 142 -82h9l7 69h102v-451q0 -129 -67 -197.5t-192 -68.5zM285 96q54 0 86.5 45
t32.5 121q0 77 -32.5 124t-87.5 47q-56 0 -88.5 -46t-32.5 -124q0 -77 33 -122t89 -45z" />
    <glyph glyph-name="h" unicode="h" horiz-adv-x="592" 
d="M76 720h120v-255h9q24 32 60 49.5t77 17.5q82 0 131 -56t49 -149v-327h-120v308q0 59 -26 91t-74 32t-77 -33.5t-29 -89.5v-308h-120v720z" />
    <glyph glyph-name="i" unicode="i" horiz-adv-x="272" 
d="M76 519h120v-519h-120v519zM136 589q-31 0 -52 20t-21 51t21 51t52 20t52 -20t21 -51t-21 -51t-52 -20z" />
    <glyph glyph-name="j" unicode="j" horiz-adv-x="272" 
d="M13 -198q-37 0 -71 12v92q27 -8 51 -8q42 0 62.5 23.5t20.5 73.5v524h120v-526q0 -92 -47.5 -141.5t-135.5 -49.5zM136 589q-31 0 -52 20t-21 51t21 51t52 20t52 -20t21 -51t-21 -51t-52 -20z" />
    <glyph glyph-name="k" unicode="k" horiz-adv-x="555" 
d="M204 252h-8v-252h-120v720h120v-402h8l174 201h139l-208 -230l238 -289h-146z" />
    <glyph glyph-name="l" unicode="l" horiz-adv-x="272" 
d="M76 720h120v-720h-120v720z" />
    <glyph glyph-name="m" unicode="m" horiz-adv-x="863" 
d="M76 519h105l6 -58h9q24 35 58 53t75 18q94 0 139 -87h9q26 43 64.5 65t86.5 22q75 0 120 -51.5t45 -136.5v-344h-120v324q0 51 -22.5 79t-62.5 28q-43 0 -68.5 -28.5t-25.5 -77.5v-325h-120v324q0 52 -22.5 79.5t-63.5 27.5q-42 0 -67 -29.5t-25 -76.5v-325h-120v519z
" />
    <glyph glyph-name="n" unicode="n" horiz-adv-x="592" 
d="M76 519h105l7 -66h9q25 38 62 58.5t83 20.5q82 0 131 -56t49 -149v-327h-120v308q0 60 -26 91.5t-74 31.5t-77 -33.5t-29 -89.5v-308h-120v519z" />
    <glyph glyph-name="o" unicode="o" horiz-adv-x="571" 
d="M285 -13q-74 0 -129.5 34.5t-84.5 96t-29 141.5q0 123 67 198t176 75q75 0 130 -34.5t84.5 -96t29.5 -141.5q0 -83 -31.5 -145t-86.5 -95t-126 -33zM285 86q58 0 90.5 46t32.5 127q0 80 -33 127t-90 47q-56 0 -89 -46t-33 -127t33 -127.5t89 -46.5z" />
    <glyph glyph-name="p" unicode="p" horiz-adv-x="596" 
d="M76 519h105l8 -75h9q22 41 60.5 64.5t85.5 23.5q65 0 112.5 -34t72.5 -95t25 -141q0 -85 -27.5 -147t-76 -95t-111.5 -33q-86 0 -133 73h-10v-245h-120v704zM312 86q57 0 89 46t32 127t-32.5 127.5t-88.5 46.5q-55 0 -87 -46t-32 -126q0 -81 32 -128t87 -47z" />
    <glyph glyph-name="q" unicode="q" horiz-adv-x="596" 
d="M400 62h-9q-22 -36 -58.5 -55.5t-81.5 -19.5q-95 0 -152 73.5t-57 196.5q0 85 27.5 147.5t77 95t114.5 32.5q93 0 142 -82h9l7 69h101v-704h-120v247zM284 86q55 0 87.5 46t32.5 126q0 81 -32.5 128t-87.5 47q-56 0 -88.5 -46t-32.5 -127q0 -82 32.5 -128t88.5 -46z" />
    <glyph glyph-name="r" unicode="r" 
d="M76 519h105l9 -77h9q20 41 53.5 64t76.5 23q28 0 44 -6v-111q-21 7 -48 7q-59 0 -94 -38t-35 -103v-278h-120v519z" />
    <glyph glyph-name="s" unicode="s" horiz-adv-x="464" 
d="M215 -13q-92 0 -164 34v99q69 -39 152 -39q46 0 71.5 16.5t25.5 47.5q0 26 -22 41.5t-87 33.5q-71 20 -105 57.5t-34 96.5q0 70 57.5 114t149.5 44q70 0 129 -27v-96q-59 28 -126 28q-44 0 -68.5 -15.5t-24.5 -43.5q0 -25 20.5 -39.5t81.5 -31.5q79 -22 114 -60.5
t35 -100.5q0 -73 -55.5 -116t-149.5 -43z" />
    <glyph glyph-name="t" unicode="t" horiz-adv-x="419" 
d="M286 -10q-88 0 -133.5 44.5t-45.5 130.5v261h-89v93h89v138h120v-138h134v-93h-134v-250q0 -46 20.5 -67.5t63.5 -21.5q33 0 64 12v-94q-48 -15 -89 -15z" />
    <glyph glyph-name="u" unicode="u" horiz-adv-x="585" 
d="M245 -13q-80 0 -127.5 55.5t-47.5 148.5v328h120v-309q0 -59 25 -91.5t71 -32.5t74.5 33.5t28.5 89.5v310h120v-519h-105l-7 62h-9q-24 -36 -61 -55.5t-82 -19.5z" />
    <glyph glyph-name="v" unicode="v" horiz-adv-x="535" 
d="M20 519h129l116 -387h9l115 387h126l-189 -519h-117z" />
    <glyph glyph-name="w" unicode="w" horiz-adv-x="752" 
d="M24 519h122l79 -369h9l91 349h106l90 -349h8l81 369h118l-141 -519h-116l-91 353h-8l-90 -353h-115z" />
    <glyph glyph-name="x" unicode="x" horiz-adv-x="540" 
d="M20 0l181 267l-171 252h137l102 -170h9l100 170h132l-170 -253l180 -266h-138l-110 178h-9l-111 -178h-132z" />
    <glyph glyph-name="y" unicode="y" horiz-adv-x="542" 
d="M129 -198q-25 0 -58 9v101q21 -6 40 -6q39 0 62.5 24.5t47.5 88.5l-201 500h132l121 -363h9l113 363h127l-194 -517q-42 -111 -86.5 -155.5t-112.5 -44.5z" />
    <glyph glyph-name="z" unicode="z" horiz-adv-x="517" 
d="M48 85l262 330v9h-249v95h399v-85l-262 -330v-9h273v-95h-423v85z" />
    <glyph glyph-name="braceleft" unicode="{" horiz-adv-x="341" 
d="M259 -128q-71 0 -110 37.5t-39 106.5q0 27 3 51t6 47.5t3 47.5q0 38 -18.5 55.5t-57.5 17.5h-12v82h13q38 0 56.5 17.5t18.5 55.5q0 24 -3 47.5t-6 47.5t-3 51q0 70 39 107.5t110 37.5q30 0 54 -6v-84q-15 3 -35 3q-31 0 -45.5 -18t-14.5 -58q0 -24 3.5 -45.5t6.5 -43.5
t3 -45q0 -84 -69 -104v-9q69 -20 69 -102q0 -23 -3 -45t-6.5 -44t-3.5 -45q0 -40 14.5 -58t45.5 -18q20 0 35 3v-85q-20 -5 -54 -5z" />
    <glyph glyph-name="bar" unicode="|" horiz-adv-x="313" 
d="M105 -190v935h103v-935h-103z" />
    <glyph glyph-name="braceright" unicode="}" horiz-adv-x="341" 
d="M82 -128q-30 0 -54 6v84q15 -3 35 -3q31 0 45.5 18t14.5 58q0 24 -3 45.5t-6.5 43.5t-3.5 45q0 84 69 104v9q-69 20 -69 102q0 23 3.5 45t6.5 44t3 45q0 40 -14.5 58t-45.5 18q-20 0 -35 -3v85q20 5 54 5q71 0 110 -37.5t39 -106.5q0 -27 -3 -51t-6 -47.5t-3 -47.5
q0 -38 18.5 -55.5t57.5 -17.5h12v-82h-13q-38 0 -56.5 -17.5t-18.5 -55.5q0 -24 3 -47t6 -47.5t3 -51.5q0 -70 -39 -107.5t-110 -37.5z" />
    <glyph glyph-name="asciitilde" unicode="~" horiz-adv-x="560" 
d="M377 249q-36 1 -62.5 14t-47.5 31t-39 31t-38 14q-51 0 -51 -87h-91q0 83 36 129.5t99 46.5q36 -1 62.5 -14t47.5 -31t39 -31t38 -14q51 0 51 88h91q0 -84 -35.5 -130.5t-99.5 -46.5z" />
    <glyph glyph-name="uni00A0" unicode="&#xa0;" horiz-adv-x="233" 
 />
    <glyph glyph-name="exclamdown" unicode="&#xa1;" horiz-adv-x="306" 
d="M215 0h-123l12 474h99zM153 683q32 0 52.5 -20.5t20.5 -51.5q0 -32 -21 -53t-52 -21t-52 21t-21 53q0 31 20.5 51.5t52.5 20.5z" />
    <glyph glyph-name="cent" unicode="&#xa2;" horiz-adv-x="560" 
d="M264 63q-89 19 -138.5 89t-49.5 176q0 102 50.5 172.5t137.5 91.5v116h92v-108q59 -5 101 -27v-100q-45 30 -111 30q-70 0 -110.5 -46.5t-40.5 -127.5q0 -79 41.5 -127t110.5 -48q65 0 117 32v-99q-49 -25 -108 -30v-109h-92v115z" />
    <glyph glyph-name="sterling" unicode="&#xa3;" horiz-adv-x="560" 
d="M421 294h-151q1 -9 1.5 -18.5t0.5 -18.5q0 -48 -15 -84.5t-48 -67.5v-9h304v-96h-448v73q48 32 73.5 76t25.5 94q0 28 -4 51h-90v85h74q-11 59 -11 103q0 94 59 150t158 56q81 0 143 -34v-102q-30 17 -66 26.5t-69 9.5q-53 0 -83 -31.5t-30 -85.5q0 -26 3 -48t7 -44h166
v-85z" />
    <glyph glyph-name="yen" unicode="&#xa5;" horiz-adv-x="560" 
d="M337 126v-126h-115v126h-152v75h152v69h-152v74h117l-171 331h126l134 -300h9l135 300h123l-172 -331h118v-74h-152v-69h152v-75h-152z" />
    <glyph glyph-name="section" unicode="&#xa7;" horiz-adv-x="549" 
d="M240 -127q-98 0 -173 36v99q32 -20 74.5 -31t88.5 -11q112 0 112 64q0 17 -8 28t-30.5 21.5t-80.5 29.5t-94.5 43t-53.5 56t-17 78q0 36 21 69t59 57v9q-51 41 -51 109q0 71 57 114.5t150 43.5q73 0 136 -27v-97q-64 31 -132 31q-45 0 -69 -15.5t-24 -45.5q0 -16 8 -27.5
t30.5 -22t76.5 -27.5q92 -29 131.5 -70t39.5 -109q0 -37 -21 -69.5t-60 -57.5v-9q52 -40 52 -107q0 -74 -60 -118t-162 -44zM299 195q19 -6 44 -16q44 33 44 77q0 29 -12.5 48t-44 35t-93.5 35q-8 2 -16.5 4.5t-15.5 5.5q-20 -14 -31 -33.5t-11 -42.5q0 -43 30 -67t106 -46z
" />
    <glyph glyph-name="dieresis" unicode="&#xa8;" horiz-adv-x="500" 
d="M146 603q-27 0 -45.5 18t-18.5 45q0 28 18.5 46t45.5 18q28 0 46.5 -18t18.5 -46q0 -27 -18.5 -45t-46.5 -18zM353 603q-27 0 -45.5 18t-18.5 45q0 28 18.5 46t45.5 18q28 0 46.5 -18t18.5 -46q0 -27 -18.5 -45t-46.5 -18z" />
    <glyph glyph-name="copyright" unicode="&#xa9;" horiz-adv-x="822" 
d="M412 629q-84 0 -147 -38t-96.5 -104t-33.5 -150q0 -87 36.5 -153.5t99 -102t141.5 -35.5q83 0 146 38t96.5 103.5t33.5 149.5q0 87 -36 154t-98.5 102.5t-141.5 35.5zM412 688q101 0 179.5 -47t121 -126.5t42.5 -177.5q0 -103 -46 -183t-124 -123.5t-173 -43.5
q-101 0 -180 47t-122 126.5t-43 176.5q0 103 46.5 183.5t124.5 124t174 43.5zM430 130q-90 0 -144.5 57t-54.5 151q0 63 26.5 110.5t72.5 73t103 25.5q58 0 98 -22v-81q-34 24 -88 24q-53 0 -83.5 -34.5t-30.5 -94.5q0 -59 31.5 -94.5t83.5 -35.5q56 0 93 25v-79
q-47 -25 -107 -25z" />
    <glyph glyph-name="ordfeminine" unicode="&#xaa;" horiz-adv-x="421" 
d="M164 308q-56 0 -89.5 29t-33.5 77q0 61 51 94t145 33q20 0 32 -1q-3 38 -24 56t-62 18q-58 0 -112 -29v73q57 30 127 30q79 0 121.5 -40t42.5 -115v-215h-81l-5 44h-8q-16 -25 -43.5 -39.5t-60.5 -14.5zM191 377q36 0 57 21t21 59v25q-13 1 -35 1q-98 0 -98 -59
q0 -21 15 -34t40 -13z" />
    <glyph glyph-name="guillemotleft" unicode="&#xab;" horiz-adv-x="529" 
d="M148 280l137 -183h-114l-135 184l135 183h114zM348 280l137 -183h-114l-135 184l135 183h114z" />
    <glyph glyph-name="logicalnot" unicode="&#xac;" horiz-adv-x="560" 
d="M408 181v185h-354v94h452v-279h-98z" />
    <glyph glyph-name="registered" unicode="&#xae;" horiz-adv-x="492" 
d="M247 675q88 0 145 -57.5t57 -146.5q0 -60 -27 -107t-73 -72.5t-102 -25.5q-89 0 -146.5 57.5t-57.5 146.5q0 60 27.5 107t73.5 72.5t103 25.5zM247 630q-70 0 -112.5 -43.5t-42.5 -115.5q0 -73 42.5 -117t112.5 -44t112 44t42 116q0 73 -42 116.5t-112 43.5zM168 367v212
h81q38 0 60.5 -18t22.5 -49q0 -47 -43 -62l57 -83h-58l-47 74h-21v-74h-52zM220 540v-60h21q18 0 28.5 8t10.5 22t-9 22t-24 8h-27z" />
    <glyph glyph-name="degree" unicode="&#xb0;" horiz-adv-x="354" 
d="M177 440q-52 0 -88.5 36t-36.5 88t36 88t89 36q52 0 88 -36t36 -88t-36 -88t-88 -36zM177 504q24 0 40.5 17t16.5 43t-16.5 43t-40.5 17q-25 0 -41.5 -17t-16.5 -43t16.5 -43t41.5 -17z" />
    <glyph glyph-name="uni00B2" unicode="&#xb2;" 
d="M60 499l93 79q46 38 62.5 60.5t16.5 47.5q0 23 -16.5 36.5t-44.5 13.5q-49 0 -97 -32v76q21 16 51 24.5t62 8.5q63 0 100 -32.5t37 -87.5q0 -40 -20 -73.5t-65 -67.5l-54 -41v-7h147v-71h-272v66z" />
    <glyph glyph-name="uni00B3" unicode="&#xb3;" 
d="M182 420q-72 0 -126 33v76q53 -37 115 -37q34 0 53 13.5t19 37.5q0 22 -17.5 33.5t-50.5 11.5h-57v68h58q28 0 42.5 12t14.5 34q0 19 -16 29t-43 10q-53 0 -102 -29v71q47 30 113 30q64 -1 101 -28t37 -74q0 -29 -16 -50.5t-43 -29.5v-8q33 -7 51 -30t18 -57
q0 -51 -42 -83.5t-109 -32.5z" />
    <glyph glyph-name="acute" unicode="&#xb4;" horiz-adv-x="500" 
d="M237 589h-106l107 156h131z" />
    <glyph glyph-name="paragraph" unicode="&#xb6;" horiz-adv-x="575" 
d="M325 675v-770h-76v343q-96 14 -149.5 69t-53.5 142q0 100 72.5 158t198.5 58h8zM394 -95v770h76v-770h-76z" />
    <glyph glyph-name="periodcentered" unicode="&#xb7;" horiz-adv-x="274" 
d="M137 211q-33 0 -53.5 20.5t-20.5 51.5q0 32 21 53t53 21t53 -21t21 -53q0 -31 -21 -51.5t-53 -20.5z" />
    <glyph glyph-name="cedilla" unicode="&#xb8;" horiz-adv-x="500" 
d="M271 12l-20 -74q47 -4 75 -29t28 -64q0 -50 -38.5 -79t-105.5 -29q-29 0 -64 10v65q30 -8 55 -8q30 0 46.5 11.5t16.5 31.5q0 38 -66 38h-31l33 127h71z" />
    <glyph glyph-name="uni00B9" unicode="&#xb9;" 
d="M193 433v276h-8l-97 -60v82l118 69h77v-367h-90z" />
    <glyph glyph-name="ordmasculine" unicode="&#xba;" horiz-adv-x="440" 
d="M220 308q-81 0 -130 51.5t-49 137.5t49.5 138.5t129.5 52.5q81 0 130 -51.5t49 -137.5t-49.5 -138.5t-129.5 -52.5zM220 387q38 0 60 29t22 81t-22 82t-60 30t-60 -29t-22 -81t22 -82t60 -30z" />
    <glyph glyph-name="guillemotright" unicode="&#xbb;" horiz-adv-x="529" 
d="M181 281l-137 183h114l135 -184l-135 -183h-114zM381 281l-137 183h114l135 -184l-135 -183h-114z" />
    <glyph glyph-name="onequarter" unicode="&#xbc;" horiz-adv-x="863" 
d="M196 0l412 675h105l-412 -675h-105zM685 0v66h-181v74l165 227h98v-232h52v-69h-52v-66h-82zM576 135h109v148h-7l-102 -140v-8zM193 308v276h-8l-97 -60v82l118 69h77v-367h-90z" />
    <glyph glyph-name="onehalf" unicode="&#xbd;" horiz-adv-x="863" 
d="M160 0l412 675h105l-412 -675h-105zM518 66l93 79q46 38 62.5 60.5t16.5 47.5q0 23 -16.5 36.5t-44.5 13.5q-49 0 -97 -32v76q21 16 51 24.5t62 8.5q63 0 100 -32.5t37 -87.5q0 -40 -20 -73.5t-65 -67.5l-54 -41v-7h147v-71h-272v66zM193 308v276h-8l-97 -60v82l118 69
h77v-367h-90z" />
    <glyph glyph-name="threequarters" unicode="&#xbe;" horiz-adv-x="863" 
d="M193 0l412 675h105l-412 -675h-105zM685 0v66h-181v74l165 227h98v-232h52v-69h-52v-66h-82zM576 135h109v148h-7l-102 -140v-8zM182 295q-72 0 -126 33v76q53 -37 115 -37q34 0 53 13.5t19 37.5q0 22 -17.5 33.5t-50.5 11.5h-57v68h58q28 0 42.5 12t14.5 34q0 19 -16 29
t-43 10q-53 0 -102 -29v71q47 30 113 30q64 -1 101 -28t37 -74q0 -29 -16 -50.5t-43 -29.5v-8q33 -7 51 -30t18 -57q0 -51 -42 -83.5t-109 -32.5z" />
    <glyph glyph-name="questiondown" unicode="&#xbf;" horiz-adv-x="479" 
d="M328 474q3 -18 3 -32q0 -54 -19.5 -91.5t-69.5 -77.5q-48 -37 -65 -59.5t-17 -48.5q0 -37 28 -57t80 -20q80 0 154 44v-101q-81 -44 -171 -44q-98 0 -155 44.5t-57 121.5q0 47 22 84.5t71 74.5q57 42 76 70t19 69v11t-1 12h102zM270 683q32 0 52.5 -20.5t20.5 -51.5
q0 -32 -21 -53t-52 -21t-52 21t-21 53q0 31 20.5 51.5t52.5 20.5z" />
    <glyph glyph-name="Agrave" unicode="&#xc0;" horiz-adv-x="665" 
d="M265 675h134l242 -675h-127l-52 158h-264l-51 -158h-123zM230 255h200l-95 296h-9zM286 741l-144 146h135l120 -146h-111z" />
    <glyph glyph-name="Aacute" unicode="&#xc1;" horiz-adv-x="665" 
d="M265 675h134l242 -675h-127l-52 158h-264l-51 -158h-123zM230 255h200l-95 296h-9zM269 741l120 146h135l-144 -146h-111z" />
    <glyph glyph-name="Acircumflex" unicode="&#xc2;" horiz-adv-x="665" 
d="M265 675h134l242 -675h-127l-52 158h-264l-51 -158h-123zM230 255h200l-95 296h-9zM405 741l-73 85l-73 -85h-107l124 146h112l124 -146h-107z" />
    <glyph glyph-name="Atilde" unicode="&#xc3;" horiz-adv-x="665" 
d="M265 675h134l242 -675h-127l-52 158h-264l-51 -158h-123zM230 255h200l-95 296h-9zM406 735q-24 0 -43 9.5t-35.5 21.5t-31.5 21.5t-29 9.5q-31 0 -31 -51v-9h-81v11q0 63 27 98t76 35q24 0 43 -9.5t35.5 -21.5t31.5 -21.5t29 -9.5q31 0 31 49v11h81v-11q0 -63 -27 -98
t-76 -35z" />
    <glyph glyph-name="Adieresis" unicode="&#xc4;" horiz-adv-x="665" 
d="M265 675h134l242 -675h-127l-52 158h-264l-51 -158h-123zM230 255h200l-95 296h-9zM222 734q-28 0 -47 18.5t-19 46.5t19 47t47 19q29 0 48 -19t19 -47q0 -27 -19 -46t-48 -19zM441 734q-28 0 -47 18.5t-19 46.5t19 47t47 19q29 0 48 -19t19 -47q0 -27 -19 -46t-48 -19z
" />
    <glyph glyph-name="Aring" unicode="&#xc5;" horiz-adv-x="665" 
d="M265 675h134l242 -675h-127l-52 158h-264l-51 -158h-123zM230 255h200l-95 296h-9zM332 721q-44 0 -73.5 28t-29.5 70q0 43 29.5 70.5t73.5 27.5t73.5 -28t29.5 -70q0 -43 -29.5 -70.5t-73.5 -27.5zM332 774q19 0 31.5 12.5t12.5 32.5t-12.5 32.5t-31.5 12.5t-31.5 -12.5
t-12.5 -32.5t12.5 -32.5t31.5 -12.5z" />
    <glyph glyph-name="AE" unicode="&#xc6;" horiz-adv-x="958" 
d="M602 394h236v-102h-231l10 -190h281v-102h-394l-8 158h-259l-89 -158h-129l392 675h477v-102h-296zM292 255h201l-14 320h-8z" />
    <glyph glyph-name="Ccedilla" unicode="&#xc7;" horiz-adv-x="602" 
d="M368 -13q-100 0 -174 43.5t-113 121.5t-39 180q0 108 43 189t117 124t168 43q45 0 88.5 -11t76.5 -31v-112q-33 22 -73 34.5t-80 12.5q-99 0 -156 -65.5t-57 -177.5q0 -111 58.5 -177.5t155.5 -66.5q89 0 164 53v-112q-77 -48 -179 -48zM377 12l-19 -74q46 -2 73.5 -28
t27.5 -65q0 -51 -37.5 -79.5t-105.5 -28.5q-31 0 -64 10v66q30 -8 54 -8q29 0 45.5 11t16.5 31q0 37 -67 37h-29l33 128h72z" />
    <glyph glyph-name="Egrave" unicode="&#xc8;" horiz-adv-x="571" 
d="M83 0v675h418v-102h-297v-179h247v-102h-247v-190h307v-102h-428zM245 741l-144 146h135l120 -146h-111z" />
    <glyph glyph-name="Eacute" unicode="&#xc9;" horiz-adv-x="571" 
d="M83 0v675h418v-102h-297v-179h247v-102h-247v-190h307v-102h-428zM228 741l120 146h135l-144 -146h-111z" />
    <glyph glyph-name="Ecircumflex" unicode="&#xca;" horiz-adv-x="571" 
d="M83 0v675h418v-102h-297v-179h247v-102h-247v-190h307v-102h-428zM364 741l-73 85l-73 -85h-107l124 146h112l124 -146h-107z" />
    <glyph glyph-name="Edieresis" unicode="&#xcb;" horiz-adv-x="571" 
d="M83 0v675h418v-102h-297v-179h247v-102h-247v-190h307v-102h-428zM181 734q-28 0 -47 18.5t-19 46.5t19 47t47 19q29 0 48 -19t19 -47q0 -27 -19 -46t-48 -19zM400 734q-28 0 -47 18.5t-19 46.5t19 47t47 19q29 0 48 -19t19 -47q0 -27 -19 -46t-48 -19z" />
    <glyph glyph-name="Igrave" unicode="&#xcc;" horiz-adv-x="289" 
d="M83 0v675h123v-675h-123zM98 741l-144 146h135l120 -146h-111z" />
    <glyph glyph-name="Iacute" unicode="&#xcd;" horiz-adv-x="289" 
d="M83 0v675h123v-675h-123zM81 741l120 146h135l-144 -146h-111z" />
    <glyph glyph-name="Icircumflex" unicode="&#xce;" horiz-adv-x="289" 
d="M83 0v675h123v-675h-123zM217 741l-73 85l-73 -85h-107l124 146h112l124 -146h-107z" />
    <glyph glyph-name="Idieresis" unicode="&#xcf;" horiz-adv-x="289" 
d="M83 0v675h123v-675h-123zM34 734q-28 0 -47 18.5t-19 46.5t19 47t47 19q29 0 48 -19t19 -47q0 -27 -19 -46t-48 -19zM253 734q-28 0 -47 18.5t-19 46.5t19 47t47 19q29 0 48 -19t19 -47q0 -27 -19 -46t-48 -19z" />
    <glyph glyph-name="Eth" unicode="&#xd0;" horiz-adv-x="685" 
d="M11 384h83v291h195q112 0 191.5 -41t121 -116.5t41.5 -179.5q0 -106 -45 -182t-127 -116t-193 -40h-184v292h-83v92zM217 570v-186h146v-92h-146v-187h69q111 0 170.5 60.5t59.5 171.5q0 113 -58 173t-166 60h-75z" />
    <glyph glyph-name="Ntilde" unicode="&#xd1;" horiz-adv-x="695" 
d="M83 0v675h112l293 -464h9v464h115v-675h-112l-293 464h-9v-464h-115zM421 735q-24 0 -43 9.5t-35.5 21.5t-31.5 21.5t-29 9.5q-31 0 -31 -51v-9h-81v11q0 63 27 98t76 35q24 0 43 -9.5t35.5 -21.5t31.5 -21.5t29 -9.5q31 0 31 49v11h81v-11q0 -63 -27 -98t-76 -35z" />
    <glyph glyph-name="Ograve" unicode="&#xd2;" horiz-adv-x="702" 
d="M351 94q84 0 133 65.5t49 177.5t-49.5 178t-133.5 66q-56 0 -97 -30t-62.5 -85t-21.5 -128q0 -112 49.5 -178t132.5 -66zM350 -13q-93 0 -163 45t-107.5 124t-37.5 181q0 106 40.5 186t110.5 122.5t159 42.5q93 0 163 -45t107.5 -124t37.5 -181q0 -106 -40.5 -186
t-110.5 -122.5t-159 -42.5zM305 741l-144 146h135l120 -146h-111z" />
    <glyph glyph-name="Oacute" unicode="&#xd3;" horiz-adv-x="702" 
d="M351 94q84 0 133 65.5t49 177.5t-49.5 178t-133.5 66q-56 0 -97 -30t-62.5 -85t-21.5 -128q0 -112 49.5 -178t132.5 -66zM350 -13q-93 0 -163 45t-107.5 124t-37.5 181q0 106 40.5 186t110.5 122.5t159 42.5q93 0 163 -45t107.5 -124t37.5 -181q0 -106 -40.5 -186
t-110.5 -122.5t-159 -42.5zM288 741l120 146h135l-144 -146h-111z" />
    <glyph glyph-name="Ocircumflex" unicode="&#xd4;" horiz-adv-x="702" 
d="M351 94q84 0 133 65.5t49 177.5t-49.5 178t-133.5 66q-56 0 -97 -30t-62.5 -85t-21.5 -128q0 -112 49.5 -178t132.5 -66zM350 -13q-93 0 -163 45t-107.5 124t-37.5 181q0 106 40.5 186t110.5 122.5t159 42.5q93 0 163 -45t107.5 -124t37.5 -181q0 -106 -40.5 -186
t-110.5 -122.5t-159 -42.5zM424 741l-73 85l-73 -85h-107l124 146h112l124 -146h-107z" />
    <glyph glyph-name="Otilde" unicode="&#xd5;" horiz-adv-x="702" 
d="M351 94q84 0 133 65.5t49 177.5t-49.5 178t-133.5 66q-56 0 -97 -30t-62.5 -85t-21.5 -128q0 -112 49.5 -178t132.5 -66zM350 -13q-93 0 -163 45t-107.5 124t-37.5 181q0 106 40.5 186t110.5 122.5t159 42.5q93 0 163 -45t107.5 -124t37.5 -181q0 -106 -40.5 -186
t-110.5 -122.5t-159 -42.5zM425 735q-24 0 -43 9.5t-35.5 21.5t-31.5 21.5t-29 9.5q-31 0 -31 -51v-9h-81v11q0 63 27 98t76 35q24 0 43 -9.5t35.5 -21.5t31.5 -21.5t29 -9.5q31 0 31 49v11h81v-11q0 -63 -27 -98t-76 -35z" />
    <glyph glyph-name="Odieresis" unicode="&#xd6;" horiz-adv-x="702" 
d="M351 94q84 0 133 65.5t49 177.5t-49.5 178t-133.5 66q-56 0 -97 -30t-62.5 -85t-21.5 -128q0 -112 49.5 -178t132.5 -66zM350 -13q-93 0 -163 45t-107.5 124t-37.5 181q0 106 40.5 186t110.5 122.5t159 42.5q93 0 163 -45t107.5 -124t37.5 -181q0 -106 -40.5 -186
t-110.5 -122.5t-159 -42.5zM241 734q-28 0 -47 18.5t-19 46.5t19 47t47 19q29 0 48 -19t19 -47q0 -27 -19 -46t-48 -19zM460 734q-28 0 -47 18.5t-19 46.5t19 47t47 19q29 0 48 -19t19 -47q0 -27 -19 -46t-48 -19z" />
    <glyph glyph-name="multiply" unicode="&#xd7;" horiz-adv-x="560" 
d="M129 553l150 -150l151 150l66 -67l-150 -149l150 -149l-66 -67l-151 150l-150 -150l-65 67l149 149l-149 149z" />
    <glyph glyph-name="Oslash" unicode="&#xd8;" horiz-adv-x="702" 
d="M57 10l62 83q-38 47 -57.5 109.5t-19.5 134.5q0 106 40.5 186t110.5 122.5t159 42.5q99 0 173 -52l56 76l64 -46l-63 -83q38 -47 58 -109.5t20 -135.5q0 -106 -40.5 -186t-110.5 -122.5t-159 -42.5q-100 0 -173 52l-56 -75zM351 90q86 0 136.5 66.5t50.5 180.5
q0 83 -30 145l-265 -355q46 -37 108 -37zM164 338q0 -85 29 -145l265 355q-46 37 -108 37q-85 0 -135.5 -66.5t-50.5 -180.5z" />
    <glyph glyph-name="Ugrave" unicode="&#xd9;" horiz-adv-x="684" 
d="M343 -13q-124 0 -195 75t-71 207v406h123v-402q0 -85 37 -131.5t106 -46.5q66 0 103.5 46t37.5 127v407h123v-397q0 -90 -33 -156t-92.5 -100.5t-138.5 -34.5zM296 741l-144 146h135l120 -146h-111z" />
    <glyph glyph-name="Uacute" unicode="&#xda;" horiz-adv-x="684" 
d="M343 -13q-124 0 -195 75t-71 207v406h123v-402q0 -85 37 -131.5t106 -46.5q66 0 103.5 46t37.5 127v407h123v-397q0 -90 -33 -156t-92.5 -100.5t-138.5 -34.5zM279 741l120 146h135l-144 -146h-111z" />
    <glyph glyph-name="Ucircumflex" unicode="&#xdb;" horiz-adv-x="684" 
d="M343 -13q-124 0 -195 75t-71 207v406h123v-402q0 -85 37 -131.5t106 -46.5q66 0 103.5 46t37.5 127v407h123v-397q0 -90 -33 -156t-92.5 -100.5t-138.5 -34.5zM415 741l-73 85l-73 -85h-107l124 146h112l124 -146h-107z" />
    <glyph glyph-name="Udieresis" unicode="&#xdc;" horiz-adv-x="684" 
d="M343 -13q-124 0 -195 75t-71 207v406h123v-402q0 -85 37 -131.5t106 -46.5q66 0 103.5 46t37.5 127v407h123v-397q0 -90 -33 -156t-92.5 -100.5t-138.5 -34.5zM232 734q-28 0 -47 18.5t-19 46.5t19 47t47 19q29 0 48 -19t19 -47q0 -27 -19 -46t-48 -19zM451 734
q-28 0 -47 18.5t-19 46.5t19 47t47 19q29 0 48 -19t19 -47q0 -27 -19 -46t-48 -19z" />
    <glyph glyph-name="Yacute" unicode="&#xdd;" horiz-adv-x="602" 
d="M240 264l-227 411h134l152 -300h9l151 300h130l-226 -412v-263h-123v264zM238 741l120 146h135l-144 -146h-111z" />
    <glyph glyph-name="Thorn" unicode="&#xde;" horiz-adv-x="578" 
d="M83 675h119v-122h81q124 0 195 -56.5t71 -154.5q0 -104 -71.5 -162.5t-200.5 -58.5h-75v-121h-119v675zM202 454v-234h80q69 0 107 31t38 88q0 56 -37 85.5t-107 29.5h-81z" />
    <glyph glyph-name="germandbls" unicode="&#xdf;" horiz-adv-x="630" 
d="M76 456q0 277 231 277q91 0 144.5 -41.5t53.5 -112.5q0 -27 -10.5 -52t-34.5 -54q-22 -26 -31 -42.5t-9 -33.5q0 -23 13.5 -40.5t51.5 -42.5q55 -36 78.5 -72.5t23.5 -84.5q0 -76 -55 -123t-144 -47q-71 0 -129 32v98q57 -37 118 -37q39 0 64 21t25 53q0 23 -15 42
t-55 46q-53 36 -73.5 64.5t-20.5 68.5q0 28 10.5 52t37.5 56q20 23 28.5 42.5t8.5 40.5q0 33 -23 52t-62 19q-54 0 -80 -40t-26 -121v-476h-120v456z" />
    <glyph glyph-name="agrave" unicode="&#xe0;" horiz-adv-x="544" 
d="M213 -13q-76 0 -121.5 41.5t-45.5 109.5q0 88 70 136t199 48q11 0 21.5 -0.5t21.5 -0.5q-4 113 -120 113q-74 0 -148 -42v97q80 43 166 43q105 0 161.5 -57.5t56.5 -164.5v-310h-100l-7 62h-9q-22 -35 -60.5 -55t-84.5 -20zM246 73q47 0 80 33.5t33 81.5v52q-13 1 -42 1
q-76 0 -116.5 -23t-40.5 -67q0 -35 23.5 -56.5t62.5 -21.5zM101 745h131l107 -156h-106z" />
    <glyph glyph-name="aacute" unicode="&#xe1;" horiz-adv-x="544" 
d="M213 -13q-76 0 -121.5 41.5t-45.5 109.5q0 88 70 136t199 48q11 0 21.5 -0.5t21.5 -0.5q-4 113 -120 113q-74 0 -148 -42v97q80 43 166 43q105 0 161.5 -57.5t56.5 -164.5v-310h-100l-7 62h-9q-22 -35 -60.5 -55t-84.5 -20zM246 73q47 0 80 33.5t33 81.5v52q-13 1 -42 1
q-76 0 -116.5 -23t-40.5 -67q0 -35 23.5 -56.5t62.5 -21.5zM319 589h-106l107 156h131z" />
    <glyph glyph-name="acircumflex" unicode="&#xe2;" horiz-adv-x="544" 
d="M213 -13q-76 0 -121.5 41.5t-45.5 109.5q0 88 70 136t199 48q11 0 21.5 -0.5t21.5 -0.5q-4 113 -120 113q-74 0 -148 -42v97q80 43 166 43q105 0 161.5 -57.5t56.5 -164.5v-310h-100l-7 62h-9q-22 -35 -60.5 -55t-84.5 -20zM246 73q47 0 80 33.5t33 81.5v52q-13 1 -42 1
q-76 0 -116.5 -23t-40.5 -67q0 -35 23.5 -56.5t62.5 -21.5zM350 589l-74 90l-74 -90h-93l116 156h102l116 -156h-93z" />
    <glyph glyph-name="atilde" unicode="&#xe3;" horiz-adv-x="544" 
d="M213 -13q-76 0 -121.5 41.5t-45.5 109.5q0 88 70 136t199 48q11 0 21.5 -0.5t21.5 -0.5q-4 113 -120 113q-74 0 -148 -42v97q80 43 166 43q105 0 161.5 -57.5t56.5 -164.5v-310h-100l-7 62h-9q-22 -35 -60.5 -55t-84.5 -20zM246 73q47 0 80 33.5t33 81.5v52q-13 1 -42 1
q-76 0 -116.5 -23t-40.5 -67q0 -35 23.5 -56.5t62.5 -21.5zM348 590q-24 0 -43 9.5t-35 21t-30 21t-27 9.5q-31 0 -31 -49v-10h-77v11q0 62 25.5 95t73.5 33q24 0 43 -9.5t35 -21t30 -21t27 -9.5q31 0 31 49v10h77v-11q0 -62 -25.5 -95t-73.5 -33z" />
    <glyph glyph-name="adieresis" unicode="&#xe4;" horiz-adv-x="544" 
d="M213 -13q-76 0 -121.5 41.5t-45.5 109.5q0 88 70 136t199 48q11 0 21.5 -0.5t21.5 -0.5q-4 113 -120 113q-74 0 -148 -42v97q80 43 166 43q105 0 161.5 -57.5t56.5 -164.5v-310h-100l-7 62h-9q-22 -35 -60.5 -55t-84.5 -20zM246 73q47 0 80 33.5t33 81.5v52q-13 1 -42 1
q-76 0 -116.5 -23t-40.5 -67q0 -35 23.5 -56.5t62.5 -21.5zM172 603q-27 0 -45.5 18t-18.5 45q0 28 18.5 46t45.5 18q28 0 46.5 -18t18.5 -46q0 -27 -18.5 -45t-46.5 -18zM379 603q-27 0 -45.5 18t-18.5 45q0 28 18.5 46t45.5 18q28 0 46.5 -18t18.5 -46q0 -27 -18.5 -45
t-46.5 -18z" />
    <glyph glyph-name="aring" unicode="&#xe5;" horiz-adv-x="544" 
d="M213 -13q-76 0 -121.5 41.5t-45.5 109.5q0 88 70 136t199 48q11 0 21.5 -0.5t21.5 -0.5q-4 113 -120 113q-74 0 -148 -42v97q80 43 166 43q105 0 161.5 -57.5t56.5 -164.5v-310h-100l-7 62h-9q-22 -35 -60.5 -55t-84.5 -20zM246 73q47 0 80 33.5t33 81.5v52q-13 1 -42 1
q-76 0 -116.5 -23t-40.5 -67q0 -35 23.5 -56.5t62.5 -21.5zM276 575q-44 0 -73 27.5t-29 69.5q0 43 29 70.5t73 27.5t73 -27.5t29 -69.5q0 -43 -29 -70.5t-73 -27.5zM276 627q19 0 31.5 12.5t12.5 33.5q0 19 -12.5 32t-31.5 13t-31.5 -12.5t-12.5 -32.5t12.5 -33t31.5 -13z
" />
    <glyph glyph-name="ae" unicode="&#xe6;" horiz-adv-x="864" 
d="M622 -13q-69 0 -122 28.5t-78 80.5h-8q-25 -53 -73.5 -81t-114.5 -28q-81 0 -130.5 40.5t-49.5 108.5q0 85 69.5 130.5t199.5 45.5h43q-2 63 -31.5 92.5t-88.5 29.5q-74 0 -148 -42v97q78 43 163 43q129 0 167 -99h8q24 48 69 73.5t104 25.5q98 0 154.5 -69t56.5 -187
v-46h-339q8 -72 49 -109.5t111 -37.5q75 0 147 39v-97q-69 -38 -158 -38zM246 73q47 0 80 33t33 82v43h-42q-77 0 -117 -21.5t-40 -62.5q0 -34 23 -54t63 -20zM590 439q-48 0 -77.5 -32t-37.5 -93h224q-4 60 -32 92.5t-77 32.5z" />
    <glyph glyph-name="ccedilla" unicode="&#xe7;" horiz-adv-x="479" 
d="M294 -13q-116 0 -184 73.5t-68 198.5q0 83 33 145t91 95t132 33t124 -29v-100q-47 30 -111 30q-69 0 -108.5 -46.5t-39.5 -126.5t40 -127t109 -47q67 0 117 32v-100q-58 -31 -135 -31zM313 12l-20 -74q47 -4 75 -29t28 -64q0 -50 -38.5 -79t-105.5 -29q-29 0 -64 10v65
q30 -8 55 -8q30 0 46.5 11.5t16.5 31.5q0 38 -66 38h-31l33 127h71z" />
    <glyph glyph-name="egrave" unicode="&#xe8;" horiz-adv-x="546" 
d="M300 -13q-121 0 -189.5 72.5t-68.5 201.5q0 82 30.5 143.5t83.5 94.5t122 33q101 0 158.5 -68t57.5 -188v-55h-337q9 -67 49.5 -102.5t108.5 -35.5q77 0 147 39v-97q-69 -38 -162 -38zM273 439q-50 0 -80 -34.5t-37 -99.5h227q-2 64 -31 99t-79 35zM92 745h131l107 -156
h-106z" />
    <glyph glyph-name="eacute" unicode="&#xe9;" horiz-adv-x="546" 
d="M300 -13q-121 0 -189.5 72.5t-68.5 201.5q0 82 30.5 143.5t83.5 94.5t122 33q101 0 158.5 -68t57.5 -188v-55h-337q9 -67 49.5 -102.5t108.5 -35.5q77 0 147 39v-97q-69 -38 -162 -38zM273 439q-50 0 -80 -34.5t-37 -99.5h227q-2 64 -31 99t-79 35zM310 589h-106l107 156
h131z" />
    <glyph glyph-name="ecircumflex" unicode="&#xea;" horiz-adv-x="546" 
d="M300 -13q-121 0 -189.5 72.5t-68.5 201.5q0 82 30.5 143.5t83.5 94.5t122 33q101 0 158.5 -68t57.5 -188v-55h-337q9 -67 49.5 -102.5t108.5 -35.5q77 0 147 39v-97q-69 -38 -162 -38zM273 439q-50 0 -80 -34.5t-37 -99.5h227q-2 64 -31 99t-79 35zM341 589l-74 90
l-74 -90h-93l116 156h102l116 -156h-93z" />
    <glyph glyph-name="edieresis" unicode="&#xeb;" horiz-adv-x="546" 
d="M300 -13q-121 0 -189.5 72.5t-68.5 201.5q0 82 30.5 143.5t83.5 94.5t122 33q101 0 158.5 -68t57.5 -188v-55h-337q9 -67 49.5 -102.5t108.5 -35.5q77 0 147 39v-97q-69 -38 -162 -38zM273 439q-50 0 -80 -34.5t-37 -99.5h227q-2 64 -31 99t-79 35zM163 603
q-27 0 -45.5 18t-18.5 45q0 28 18.5 46t45.5 18q28 0 46.5 -18t18.5 -46q0 -27 -18.5 -45t-46.5 -18zM370 603q-27 0 -45.5 18t-18.5 45q0 28 18.5 46t45.5 18q28 0 46.5 -18t18.5 -46q0 -27 -18.5 -45t-46.5 -18z" />
    <glyph glyph-name="igrave" unicode="&#xec;" horiz-adv-x="272" 
d="M76 519h120v-519h-120v519zM-39 745h131l107 -156h-106z" />
    <glyph glyph-name="iacute" unicode="&#xed;" horiz-adv-x="272" 
d="M76 519h120v-519h-120v519zM179 589h-106l107 156h131z" />
    <glyph glyph-name="icircumflex" unicode="&#xee;" horiz-adv-x="272" 
d="M76 519h120v-519h-120v519zM210 589l-74 90l-74 -90h-93l116 156h102l116 -156h-93z" />
    <glyph glyph-name="idieresis" unicode="&#xef;" horiz-adv-x="272" 
d="M76 519h120v-519h-120v519zM32 603q-27 0 -45.5 18t-18.5 45q0 28 18.5 46t45.5 18q28 0 46.5 -18t18.5 -46q0 -27 -18.5 -45t-46.5 -18zM239 603q-27 0 -45.5 18t-18.5 45q0 28 18.5 46t45.5 18q28 0 46.5 -18t18.5 -46q0 -27 -18.5 -45t-46.5 -18z" />
    <glyph glyph-name="eth" unicode="&#xf0;" horiz-adv-x="568" 
d="M430 689l-61 -42q158 -120 158 -346q0 -149 -65 -231.5t-182 -82.5q-72 0 -126 31.5t-83 86.5t-29 126t28.5 125t77.5 82.5t110 28.5q49 0 86 -20.5t57 -59.5h9q-15 125 -130 197l-109 -77l-36 51l82 58q-34 14 -82 26v107q92 -23 159 -56l18 -10l82 57zM283 86
q53 0 86.5 39t33.5 101q0 63 -33.5 103t-86.5 40q-54 0 -87 -38.5t-33 -101.5q0 -64 33.5 -103.5t86.5 -39.5z" />
    <glyph glyph-name="ntilde" unicode="&#xf1;" horiz-adv-x="592" 
d="M76 519h105l7 -66h9q25 38 62 58.5t83 20.5q82 0 131 -56t49 -149v-327h-120v308q0 60 -26 91.5t-74 31.5t-77 -33.5t-29 -89.5v-308h-120v519zM370 590q-24 0 -43 9.5t-35 21t-30 21t-27 9.5q-31 0 -31 -49v-10h-77v11q0 62 25.5 95t73.5 33q24 0 43 -9.5t35 -21t30 -21
t27 -9.5q31 0 31 49v10h77v-11q0 -62 -25.5 -95t-73.5 -33z" />
    <glyph glyph-name="ograve" unicode="&#xf2;" horiz-adv-x="571" 
d="M285 -13q-74 0 -129.5 34.5t-84.5 96t-29 141.5q0 123 67 198t176 75q75 0 130 -34.5t84.5 -96t29.5 -141.5q0 -83 -31.5 -145t-86.5 -95t-126 -33zM285 86q58 0 90.5 46t32.5 127q0 80 -33 127t-90 47q-56 0 -89 -46t-33 -127t33 -127.5t89 -46.5zM110 745h131l107 -156
h-106z" />
    <glyph glyph-name="oacute" unicode="&#xf3;" horiz-adv-x="571" 
d="M285 -13q-74 0 -129.5 34.5t-84.5 96t-29 141.5q0 123 67 198t176 75q75 0 130 -34.5t84.5 -96t29.5 -141.5q0 -83 -31.5 -145t-86.5 -95t-126 -33zM285 86q58 0 90.5 46t32.5 127q0 80 -33 127t-90 47q-56 0 -89 -46t-33 -127t33 -127.5t89 -46.5zM328 589h-106l107 156
h131z" />
    <glyph glyph-name="ocircumflex" unicode="&#xf4;" horiz-adv-x="571" 
d="M285 -13q-74 0 -129.5 34.5t-84.5 96t-29 141.5q0 123 67 198t176 75q75 0 130 -34.5t84.5 -96t29.5 -141.5q0 -83 -31.5 -145t-86.5 -95t-126 -33zM285 86q58 0 90.5 46t32.5 127q0 80 -33 127t-90 47q-56 0 -89 -46t-33 -127t33 -127.5t89 -46.5zM359 589l-74 90
l-74 -90h-93l116 156h102l116 -156h-93z" />
    <glyph glyph-name="otilde" unicode="&#xf5;" horiz-adv-x="571" 
d="M285 -13q-74 0 -129.5 34.5t-84.5 96t-29 141.5q0 123 67 198t176 75q75 0 130 -34.5t84.5 -96t29.5 -141.5q0 -83 -31.5 -145t-86.5 -95t-126 -33zM285 86q58 0 90.5 46t32.5 127q0 80 -33 127t-90 47q-56 0 -89 -46t-33 -127t33 -127.5t89 -46.5zM357 590
q-24 0 -43 9.5t-35 21t-30 21t-27 9.5q-31 0 -31 -49v-10h-77v11q0 62 25.5 95t73.5 33q24 0 43 -9.5t35 -21t30 -21t27 -9.5q31 0 31 49v10h77v-11q0 -62 -25.5 -95t-73.5 -33z" />
    <glyph glyph-name="odieresis" unicode="&#xf6;" horiz-adv-x="571" 
d="M285 -13q-74 0 -129.5 34.5t-84.5 96t-29 141.5q0 123 67 198t176 75q75 0 130 -34.5t84.5 -96t29.5 -141.5q0 -83 -31.5 -145t-86.5 -95t-126 -33zM285 86q58 0 90.5 46t32.5 127q0 80 -33 127t-90 47q-56 0 -89 -46t-33 -127t33 -127.5t89 -46.5zM181 603
q-27 0 -45.5 18t-18.5 45q0 28 18.5 46t45.5 18q28 0 46.5 -18t18.5 -46q0 -27 -18.5 -45t-46.5 -18zM388 603q-27 0 -45.5 18t-18.5 45q0 28 18.5 46t45.5 18q28 0 46.5 -18t18.5 -46q0 -27 -18.5 -45t-46.5 -18z" />
    <glyph glyph-name="divide" unicode="&#xf7;" horiz-adv-x="560" 
d="M280 86q-28 0 -46.5 18t-18.5 44q0 27 18.5 45t46.5 18q27 0 45.5 -18.5t18.5 -44.5t-18 -44t-46 -18zM75 288v99h410v-99h-410zM280 464q-27 0 -46 18t-19 44q0 27 18.5 45t46.5 18q27 0 45.5 -18.5t18.5 -44.5t-18 -44t-46 -18z" />
    <glyph glyph-name="oslash" unicode="&#xf8;" horiz-adv-x="571" 
d="M54 9l45 62q-57 72 -57 188q0 123 67 198t176 75q76 0 133 -37l42 56l57 -40l-47 -63q29 -36 44 -84.5t15 -103.5q0 -83 -31.5 -145t-86.5 -95t-126 -33q-73 0 -133 37l-40 -56zM285 78q60 0 95.5 49t35.5 132q0 52 -16 95l-189 -252q34 -24 74 -24zM155 260
q0 -52 15 -97l189 254q-31 23 -74 23q-60 0 -95 -48.5t-35 -131.5z" />
    <glyph glyph-name="ugrave" unicode="&#xf9;" horiz-adv-x="585" 
d="M245 -13q-80 0 -127.5 55.5t-47.5 148.5v328h120v-309q0 -59 25 -91.5t71 -32.5t74.5 33.5t28.5 89.5v310h120v-519h-105l-7 62h-9q-24 -36 -61 -55.5t-82 -19.5zM114 745h131l107 -156h-106z" />
    <glyph glyph-name="uacute" unicode="&#xfa;" horiz-adv-x="585" 
d="M245 -13q-80 0 -127.5 55.5t-47.5 148.5v328h120v-309q0 -59 25 -91.5t71 -32.5t74.5 33.5t28.5 89.5v310h120v-519h-105l-7 62h-9q-24 -36 -61 -55.5t-82 -19.5zM332 589h-106l107 156h131z" />
    <glyph glyph-name="ucircumflex" unicode="&#xfb;" horiz-adv-x="585" 
d="M245 -13q-80 0 -127.5 55.5t-47.5 148.5v328h120v-309q0 -59 25 -91.5t71 -32.5t74.5 33.5t28.5 89.5v310h120v-519h-105l-7 62h-9q-24 -36 -61 -55.5t-82 -19.5zM363 589l-74 90l-74 -90h-93l116 156h102l116 -156h-93z" />
    <glyph glyph-name="udieresis" unicode="&#xfc;" horiz-adv-x="585" 
d="M245 -13q-80 0 -127.5 55.5t-47.5 148.5v328h120v-309q0 -59 25 -91.5t71 -32.5t74.5 33.5t28.5 89.5v310h120v-519h-105l-7 62h-9q-24 -36 -61 -55.5t-82 -19.5zM185 603q-27 0 -45.5 18t-18.5 45q0 28 18.5 46t45.5 18q28 0 46.5 -18t18.5 -46q0 -27 -18.5 -45
t-46.5 -18zM392 603q-27 0 -45.5 18t-18.5 45q0 28 18.5 46t45.5 18q28 0 46.5 -18t18.5 -46q0 -27 -18.5 -45t-46.5 -18z" />
    <glyph glyph-name="yacute" unicode="&#xfd;" horiz-adv-x="542" 
d="M129 -198q-25 0 -58 9v101q21 -6 40 -6q39 0 62.5 24.5t47.5 88.5l-201 500h132l121 -363h9l113 363h127l-194 -517q-42 -111 -86.5 -155.5t-112.5 -44.5zM313 589h-106l107 156h131z" />
    <glyph glyph-name="thorn" unicode="&#xfe;" horiz-adv-x="596" 
d="M339 -13q-86 0 -133 73h-10v-245h-120v905h120v-265h9q22 36 58.5 56.5t80.5 20.5q65 0 112.5 -34t72.5 -95t25 -141q0 -85 -27.5 -147t-76 -95t-111.5 -33zM312 86q57 0 89 46t32 127t-32.5 127.5t-88.5 46.5q-55 0 -87 -46t-32 -126q0 -81 32 -128t87 -47z" />
    <glyph glyph-name="ydieresis" unicode="&#xff;" horiz-adv-x="542" 
d="M129 -198q-25 0 -58 9v101q21 -6 40 -6q39 0 62.5 24.5t47.5 88.5l-201 500h132l121 -363h9l113 363h127l-194 -517q-42 -111 -86.5 -155.5t-112.5 -44.5zM166 603q-27 0 -45.5 18t-18.5 45q0 28 18.5 46t45.5 18q28 0 46.5 -18t18.5 -46q0 -27 -18.5 -45t-46.5 -18z
M373 603q-27 0 -45.5 18t-18.5 45q0 28 18.5 46t45.5 18q28 0 46.5 -18t18.5 -46q0 -27 -18.5 -45t-46.5 -18z" />
    <glyph glyph-name="Abreve" unicode="&#x102;" horiz-adv-x="665" 
d="M265 675h134l242 -675h-127l-52 158h-264l-51 -158h-123zM230 255h200l-95 296h-9zM332 731q-77 0 -119 40t-42 112h85q0 -37 20.5 -58.5t55.5 -21.5t55.5 21.5t20.5 58.5h85q0 -70 -43 -111t-118 -41z" />
    <glyph glyph-name="abreve" unicode="&#x103;" horiz-adv-x="544" 
d="M213 -13q-76 0 -121.5 41.5t-45.5 109.5q0 88 70 136t199 48q11 0 21.5 -0.5t21.5 -0.5q-4 113 -120 113q-74 0 -148 -42v97q80 43 166 43q105 0 161.5 -57.5t56.5 -164.5v-310h-100l-7 62h-9q-22 -35 -60.5 -55t-84.5 -20zM246 73q47 0 80 33.5t33 81.5v52q-13 1 -42 1
q-76 0 -116.5 -23t-40.5 -67q0 -35 23.5 -56.5t62.5 -21.5zM276 583q-73 0 -114 41t-41 114h82q0 -39 19 -61t54 -22t54 21.5t19 61.5h82q0 -71 -42 -113t-113 -42z" />
    <glyph glyph-name="dotlessi" unicode="&#x131;" horiz-adv-x="272" 
d="M76 519h120v-519h-120v519z" />
    <glyph glyph-name="IJ" unicode="&#x132;" horiz-adv-x="759" 
d="M83 0v675h123v-675h-123zM459 -13q-76 0 -131 28v106q49 -28 111 -28q61 0 90.5 33.5t29.5 103.5v445h123v-434q0 -126 -56.5 -190t-166.5 -64z" />
    <glyph glyph-name="ij" unicode="&#x133;" horiz-adv-x="544" 
d="M76 519h120v-519h-120v519zM136 589q-31 0 -52 20t-21 51t21 51t52 20t52 -20t21 -51t-21 -51t-52 -20zM285 -198q-37 0 -71 12v92q27 -8 51 -8q42 0 62.5 23.5t20.5 73.5v524h120v-526q0 -92 -47.5 -141.5t-135.5 -49.5zM408 589q-31 0 -52 20t-21 51t21 51t52 20
t52 -20t21 -51t-21 -51t-52 -20z" />
    <glyph glyph-name="OE" unicode="&#x152;" horiz-adv-x="952" 
d="M473 0q-54 -14 -113 -14q-97 0 -169 44.5t-110.5 122.5t-38.5 179q0 108 41 189t113 124t164 43q62 0 113 -13h409v-102h-289v-179h239v-102h-239v-190h299v-102h-419zM369 92q59 0 104 14v461q-44 16 -103 16q-95 0 -148 -64.5t-53 -180.5q0 -114 53.5 -180t146.5 -66z
" />
    <glyph glyph-name="oe" unicode="&#x153;" horiz-adv-x="912" 
d="M666 -13q-71 0 -121.5 29t-76.5 84h-8q-26 -55 -72 -84t-107 -29q-73 0 -127.5 34.5t-83 96t-28.5 141.5q0 83 31 145t85.5 95t124.5 33q62 0 109 -30t69 -83h8q22 53 69.5 83t109.5 30q98 0 155 -68.5t57 -187.5v-55h-337q9 -67 49.5 -102.5t108.5 -35.5q77 0 147 39
v-97q-69 -38 -162 -38zM285 86q58 0 90.5 46t32.5 127q0 80 -33 127t-90 47q-56 0 -89 -46t-33 -127t33 -127.5t89 -46.5zM639 439q-50 0 -80 -34.5t-37 -99.5h227q-2 64 -31 99t-79 35z" />
    <glyph glyph-name="Scedilla" unicode="&#x15e;" horiz-adv-x="526" 
d="M245 -13q-112 0 -199 43v111q98 -50 182 -50q63 0 98 24.5t35 69.5q0 39 -31.5 63t-118.5 53q-80 27 -119.5 73.5t-39.5 114.5q0 90 66 144.5t176 54.5q84 0 150 -32v-106q-67 35 -146 35q-59 0 -91.5 -23t-32.5 -64q0 -36 29.5 -59.5t107.5 -48.5q91 -30 133.5 -78
t42.5 -120q0 -94 -65.5 -149.5t-176.5 -55.5zM301 12l-19 -74q46 -2 73.5 -28t27.5 -65q0 -51 -37.5 -79.5t-105.5 -28.5q-31 0 -64 10v66q30 -8 54 -8q29 0 45.5 11t16.5 31q0 37 -67 37h-29l33 128h72z" />
    <glyph glyph-name="scedilla" unicode="&#x15f;" horiz-adv-x="464" 
d="M215 -13q-92 0 -164 34v99q69 -39 152 -39q46 0 71.5 16.5t25.5 47.5q0 26 -22 41.5t-87 33.5q-71 20 -105 57.5t-34 96.5q0 70 57.5 114t149.5 44q70 0 129 -27v-96q-59 28 -126 28q-44 0 -68.5 -15.5t-24.5 -43.5q0 -25 20.5 -39.5t81.5 -31.5q79 -22 114 -60.5
t35 -100.5q0 -73 -55.5 -116t-149.5 -43zM267 12l-20 -74q47 -4 75 -29t28 -64q0 -50 -38.5 -79t-105.5 -29q-29 0 -64 10v65q30 -8 55 -8q30 0 46.5 11.5t16.5 31.5q0 38 -66 38h-31l33 127h71z" />
    <glyph glyph-name="Scaron" unicode="&#x160;" horiz-adv-x="526" 
d="M245 -13q-112 0 -199 43v111q98 -50 182 -50q63 0 98 24.5t35 69.5q0 39 -31.5 63t-118.5 53q-80 27 -119.5 73.5t-39.5 114.5q0 90 66 144.5t176 54.5q84 0 150 -32v-106q-67 35 -146 35q-59 0 -91.5 -23t-32.5 -64q0 -36 29.5 -59.5t107.5 -48.5q91 -30 133.5 -78
t42.5 -120q0 -94 -65.5 -149.5t-176.5 -55.5zM83 887h107l73 -85l73 85h107l-124 -146h-112z" />
    <glyph glyph-name="scaron" unicode="&#x161;" horiz-adv-x="464" 
d="M215 -13q-92 0 -164 34v99q69 -39 152 -39q46 0 71.5 16.5t25.5 47.5q0 26 -22 41.5t-87 33.5q-71 20 -105 57.5t-34 96.5q0 70 57.5 114t149.5 44q70 0 129 -27v-96q-59 28 -126 28q-44 0 -68.5 -15.5t-24.5 -43.5q0 -25 20.5 -39.5t81.5 -31.5q79 -22 114 -60.5
t35 -100.5q0 -73 -55.5 -116t-149.5 -43zM75 745h93l74 -90l74 90h93l-116 -156h-102z" />
    <glyph glyph-name="uni0162" unicode="&#x162;" horiz-adv-x="581" 
d="M229 0v570h-202v105h527v-105h-202v-570h-123zM331 12l-19 -74q46 -2 73.5 -28t27.5 -65q0 -51 -37.5 -79.5t-105.5 -28.5q-31 0 -64 10v66q30 -8 54 -8q29 0 45.5 11t16.5 31q0 37 -67 37h-29l33 128h72z" />
    <glyph glyph-name="uni0163" unicode="&#x163;" horiz-adv-x="419" 
d="M286 -10q-88 0 -133.5 44.5t-45.5 130.5v261h-89v93h89v138h120v-138h134v-93h-134v-250q0 -46 20.5 -67.5t63.5 -21.5q33 0 64 12v-94q-48 -15 -89 -15zM283 12l-20 -74q47 -4 75 -29t28 -64q0 -50 -38.5 -79t-105.5 -29q-29 0 -64 10v65q30 -8 55 -8q30 0 46.5 11.5
t16.5 31.5q0 38 -66 38h-31l33 127h71z" />
    <glyph glyph-name="Wcircumflex" unicode="&#x174;" horiz-adv-x="894" 
d="M24 675h128l112 -517h9l114 487h123l115 -486h9l111 516h125l-172 -675h-133l-114 485h-9l-114 -485h-131zM520 741l-73 85l-73 -85h-107l124 146h112l124 -146h-107z" />
    <glyph glyph-name="wcircumflex" unicode="&#x175;" horiz-adv-x="752" 
d="M24 519h122l79 -369h9l91 349h106l90 -349h8l81 369h118l-141 -519h-116l-91 353h-8l-90 -353h-115zM450 589l-74 90l-74 -90h-93l116 156h102l116 -156h-93z" />
    <glyph glyph-name="Ycircumflex" unicode="&#x176;" horiz-adv-x="602" 
d="M240 264l-227 411h134l152 -300h9l151 300h130l-226 -412v-263h-123v264zM374 741l-73 85l-73 -85h-107l124 146h112l124 -146h-107z" />
    <glyph glyph-name="ycircumflex" unicode="&#x177;" horiz-adv-x="542" 
d="M129 -198q-25 0 -58 9v101q21 -6 40 -6q39 0 62.5 24.5t47.5 88.5l-201 500h132l121 -363h9l113 363h127l-194 -517q-42 -111 -86.5 -155.5t-112.5 -44.5zM344 589l-74 90l-74 -90h-93l116 156h102l116 -156h-93z" />
    <glyph glyph-name="Ydieresis" unicode="&#x178;" horiz-adv-x="602" 
d="M240 264l-227 411h134l152 -300h9l151 300h130l-226 -412v-263h-123v264zM191 734q-28 0 -47 18.5t-19 46.5t19 47t47 19q29 0 48 -19t19 -47q0 -27 -19 -46t-48 -19zM410 734q-28 0 -47 18.5t-19 46.5t19 47t47 19q29 0 48 -19t19 -47q0 -27 -19 -46t-48 -19z" />
    <glyph glyph-name="Zcaron" unicode="&#x17d;" horiz-adv-x="581" 
d="M51 0v91l328 472v8h-314v104h463v-91l-328 -472v-8h340v-104h-489zM115 887h107l73 -85l73 85h107l-124 -146h-112z" />
    <glyph glyph-name="zcaron" unicode="&#x17e;" horiz-adv-x="517" 
d="M48 85l262 330v9h-249v95h399v-85l-262 -330v-9h273v-95h-423v85zM92 745h93l74 -90l74 90h93l-116 -156h-102z" />
    <glyph glyph-name="uni0218" unicode="&#x218;" horiz-adv-x="526" 
d="M245 -13q-112 0 -199 43v111q98 -50 182 -50q63 0 98 24.5t35 69.5q0 39 -31.5 63t-118.5 53q-80 27 -119.5 73.5t-39.5 114.5q0 90 66 144.5t176 54.5q84 0 150 -32v-106q-67 35 -146 35q-59 0 -91.5 -23t-32.5 -64q0 -36 29.5 -59.5t107.5 -48.5q91 -30 133.5 -78
t42.5 -120q0 -94 -65.5 -149.5t-176.5 -55.5zM154 -259q26 43 40.5 94t14.5 101h105q0 -50 -18.5 -102t-50.5 -93h-91z" />
    <glyph glyph-name="uni0219" unicode="&#x219;" horiz-adv-x="464" 
d="M215 -13q-92 0 -164 34v99q69 -39 152 -39q46 0 71.5 16.5t25.5 47.5q0 26 -22 41.5t-87 33.5q-71 20 -105 57.5t-34 96.5q0 70 57.5 114t149.5 44q70 0 129 -27v-96q-59 28 -126 28q-44 0 -68.5 -15.5t-24.5 -43.5q0 -25 20.5 -39.5t81.5 -31.5q79 -22 114 -60.5
t35 -100.5q0 -73 -55.5 -116t-149.5 -43zM128 -251q26 42 40.5 93t14.5 101h103q0 -50 -18 -101t-51 -93h-89z" />
    <glyph glyph-name="uni021A" unicode="&#x21a;" horiz-adv-x="581" 
d="M229 0v570h-202v105h527v-105h-202v-570h-123zM184 -259q26 43 40.5 94t14.5 101h105q0 -50 -18.5 -102t-50.5 -93h-91z" />
    <glyph glyph-name="uni021B" unicode="&#x21b;" horiz-adv-x="419" 
d="M286 -10q-88 0 -133.5 44.5t-45.5 130.5v261h-89v93h89v138h120v-138h134v-93h-134v-250q0 -46 20.5 -67.5t63.5 -21.5q33 0 64 12v-94q-48 -15 -89 -15zM137 -251q26 42 40.5 93t14.5 101h103q0 -50 -18 -101t-51 -93h-89z" />
    <glyph glyph-name="uni0237" unicode="&#x237;" horiz-adv-x="272" 
d="M13 -198q-37 0 -71 12v92q27 -8 51 -8q42 0 62.5 23.5t20.5 73.5v524h120v-526q0 -92 -47.5 -141.5t-135.5 -49.5z" />
    <glyph glyph-name="circumflex" unicode="&#x2c6;" horiz-adv-x="500" 
d="M324 589l-74 90l-74 -90h-93l116 156h102l116 -156h-93z" />
    <glyph glyph-name="caron" unicode="&#x2c7;" horiz-adv-x="500" 
d="M83 745h93l74 -90l74 90h93l-116 -156h-102z" />
    <glyph glyph-name="uni02CB" unicode="&#x2cb;" horiz-adv-x="500" 
d="M131 745h131l107 -156h-106z" />
    <glyph glyph-name="breve" unicode="&#x2d8;" horiz-adv-x="500" 
d="M250 583q-73 0 -114 41t-41 114h82q0 -39 19 -61t54 -22t54 21.5t19 61.5h82q0 -71 -42 -113t-113 -42z" />
    <glyph glyph-name="ring" unicode="&#x2da;" horiz-adv-x="500" 
d="M250 575q-44 0 -73 27.5t-29 69.5q0 43 29 70.5t73 27.5t73 -27.5t29 -69.5q0 -43 -29 -70.5t-73 -27.5zM250 627q19 0 31.5 12.5t12.5 33.5q0 19 -12.5 32t-31.5 13t-31.5 -12.5t-12.5 -32.5t12.5 -33t31.5 -13z" />
    <glyph glyph-name="tilde" unicode="&#x2dc;" horiz-adv-x="500" 
d="M322 590q-24 0 -43 9.5t-35 21t-30 21t-27 9.5q-31 0 -31 -49v-10h-77v11q0 62 25.5 95t73.5 33q24 0 43 -9.5t35 -21t30 -21t27 -9.5q31 0 31 49v10h77v-11q0 -62 -25.5 -95t-73.5 -33z" />
    <glyph glyph-name="gravecomb" unicode="&#x300;" horiz-adv-x="0" 
d="M-175 745h131l107 -156h-106z" />
    <glyph glyph-name="acutecomb" unicode="&#x301;" horiz-adv-x="0" 
d="M43 589h-106l107 156h131z" />
    <glyph glyph-name="uni0302" unicode="&#x302;" horiz-adv-x="0" 
d="M74 589l-74 90l-74 -90h-93l116 156h102l116 -156h-93z" />
    <glyph glyph-name="tildecomb" unicode="&#x303;" horiz-adv-x="0" 
d="M72 590q-24 0 -43 9.5t-35 21t-30 21t-27 9.5q-31 0 -31 -49v-10h-77v11q0 62 25.5 95t73.5 33q24 0 43 -9.5t35 -21t30 -21t27 -9.5q31 0 31 49v10h77v-11q0 -62 -25.5 -95t-73.5 -33z" />
    <glyph glyph-name="uni0306" unicode="&#x306;" horiz-adv-x="0" 
d="M0 583q-73 0 -114 41t-41 114h82q0 -39 19 -61t54 -22t54 21.5t19 61.5h82q0 -71 -42 -113t-113 -42z" />
    <glyph glyph-name="uni0308" unicode="&#x308;" horiz-adv-x="0" 
d="M-104 603q-27 0 -45.5 18t-18.5 45q0 28 18.5 46t45.5 18q28 0 46.5 -18t18.5 -46q0 -27 -18.5 -45t-46.5 -18zM103 603q-27 0 -45.5 18t-18.5 45q0 28 18.5 46t45.5 18q28 0 46.5 -18t18.5 -46q0 -27 -18.5 -45t-46.5 -18z" />
    <glyph glyph-name="uni030A" unicode="&#x30a;" horiz-adv-x="0" 
d="M0 575q-44 0 -73 27.5t-29 69.5q0 43 29 70.5t73 27.5t73 -27.5t29 -69.5q0 -43 -29 -70.5t-73 -27.5zM0 627q19 0 31.5 12.5t12.5 33.5q0 19 -12.5 32t-31.5 13t-31.5 -12.5t-12.5 -32.5t12.5 -33t31.5 -13z" />
    <glyph glyph-name="uni030C" unicode="&#x30c;" horiz-adv-x="0" 
d="M-167 745h93l74 -90l74 90h93l-116 -156h-102z" />
    <glyph glyph-name="uni0326" unicode="&#x326;" horiz-adv-x="0" 
d="M-106 -251q26 42 40.5 93t14.5 101h103q0 -50 -18 -101t-51 -93h-89z" />
    <glyph glyph-name="uni0327" unicode="&#x327;" horiz-adv-x="0" 
d="M43 12l-20 -74q47 -4 75 -29t28 -64q0 -50 -38.5 -79t-105.5 -29q-29 0 -64 10v65q30 -8 55 -8q30 0 46.5 11.5t16.5 31.5q0 38 -66 38h-31l33 127h71z" />
    <glyph glyph-name="Wgrave" unicode="&#x1e80;" horiz-adv-x="894" 
d="M24 675h128l112 -517h9l114 487h123l115 -486h9l111 516h125l-172 -675h-133l-114 485h-9l-114 -485h-131zM401 741l-144 146h135l120 -146h-111z" />
    <glyph glyph-name="wgrave" unicode="&#x1e81;" horiz-adv-x="752" 
d="M24 519h122l79 -369h9l91 349h106l90 -349h8l81 369h118l-141 -519h-116l-91 353h-8l-90 -353h-115zM201 745h131l107 -156h-106z" />
    <glyph glyph-name="Wacute" unicode="&#x1e82;" horiz-adv-x="894" 
d="M24 675h128l112 -517h9l114 487h123l115 -486h9l111 516h125l-172 -675h-133l-114 485h-9l-114 -485h-131zM384 741l120 146h135l-144 -146h-111z" />
    <glyph glyph-name="wacute" unicode="&#x1e83;" horiz-adv-x="752" 
d="M24 519h122l79 -369h9l91 349h106l90 -349h8l81 369h118l-141 -519h-116l-91 353h-8l-90 -353h-115zM419 589h-106l107 156h131z" />
    <glyph glyph-name="Wdieresis" unicode="&#x1e84;" horiz-adv-x="894" 
d="M24 675h128l112 -517h9l114 487h123l115 -486h9l111 516h125l-172 -675h-133l-114 485h-9l-114 -485h-131zM337 734q-28 0 -47 18.5t-19 46.5t19 47t47 19q29 0 48 -19t19 -47q0 -27 -19 -46t-48 -19zM556 734q-28 0 -47 18.5t-19 46.5t19 47t47 19q29 0 48 -19t19 -47
q0 -27 -19 -46t-48 -19z" />
    <glyph glyph-name="wdieresis" unicode="&#x1e85;" horiz-adv-x="752" 
d="M24 519h122l79 -369h9l91 349h106l90 -349h8l81 369h118l-141 -519h-116l-91 353h-8l-90 -353h-115zM272 603q-27 0 -45.5 18t-18.5 45q0 28 18.5 46t45.5 18q28 0 46.5 -18t18.5 -46q0 -27 -18.5 -45t-46.5 -18zM479 603q-27 0 -45.5 18t-18.5 45q0 28 18.5 46t45.5 18
q28 0 46.5 -18t18.5 -46q0 -27 -18.5 -45t-46.5 -18z" />
    <glyph glyph-name="uni1E9E" unicode="&#x1e9e;" horiz-adv-x="667" 
d="M77 398q0 138 73 214t203 76q63 0 124 -20t103 -54v-80l-131 -147v-9q82 -7 131 -56t49 -129q0 -62 -30 -109t-82.5 -72t-116.5 -25q-74 0 -129 25v100q23 -12 54 -19.5t60 -7.5q54 0 88 32t34 80q0 110 -142 110h-43v75l147 163v8q-45 28 -116 28q-75 0 -114 -47
t-39 -138v-396h-123v398z" />
    <glyph glyph-name="Ygrave" unicode="&#x1ef2;" horiz-adv-x="602" 
d="M240 264l-227 411h134l152 -300h9l151 300h130l-226 -412v-263h-123v264zM255 741l-144 146h135l120 -146h-111z" />
    <glyph glyph-name="ygrave" unicode="&#x1ef3;" horiz-adv-x="542" 
d="M129 -198q-25 0 -58 9v101q21 -6 40 -6q39 0 62.5 24.5t47.5 88.5l-201 500h132l121 -363h9l113 363h127l-194 -517q-42 -111 -86.5 -155.5t-112.5 -44.5zM95 745h131l107 -156h-106z" />
    <glyph glyph-name="uni2000" unicode="&#x2000;" horiz-adv-x="500" 
 />
    <glyph glyph-name="uni2001" unicode="&#x2001;" horiz-adv-x="1000" 
 />
    <glyph glyph-name="uni2002" unicode="&#x2002;" horiz-adv-x="500" 
 />
    <glyph glyph-name="uni2003" unicode="&#x2003;" horiz-adv-x="1000" 
 />
    <glyph glyph-name="uni2004" unicode="&#x2004;" horiz-adv-x="333" 
 />
    <glyph glyph-name="uni2005" unicode="&#x2005;" horiz-adv-x="250" 
 />
    <glyph glyph-name="uni2006" unicode="&#x2006;" horiz-adv-x="166" 
 />
    <glyph glyph-name="uni2007" unicode="&#x2007;" horiz-adv-x="560" 
 />
    <glyph glyph-name="uni2008" unicode="&#x2008;" horiz-adv-x="274" 
 />
    <glyph glyph-name="uni2009" unicode="&#x2009;" horiz-adv-x="200" 
 />
    <glyph glyph-name="uni200A" unicode="&#x200a;" horiz-adv-x="55" 
 />
    <glyph glyph-name="uni200B" unicode="&#x200b;" horiz-adv-x="0" 
 />
    <glyph glyph-name="endash" unicode="&#x2013;" horiz-adv-x="500" 
d="M0 325h500v-87h-500v87z" />
    <glyph glyph-name="emdash" unicode="&#x2014;" horiz-adv-x="1000" 
d="M0 325h1000v-87h-1000v87z" />
    <glyph glyph-name="quoteleft" unicode="&#x2018;" horiz-adv-x="263" 
d="M236 675q-74 -112 -74 -244h-104q0 139 89 244h89z" />
    <glyph glyph-name="quoteright" unicode="&#x2019;" horiz-adv-x="263" 
d="M27 431q74 112 74 244h104q0 -139 -89 -244h-89z" />
    <glyph glyph-name="quotesinglbase" unicode="&#x201a;" horiz-adv-x="263" 
d="M27 -106q74 112 74 244h104q0 -139 -89 -244h-89z" />
    <glyph glyph-name="quotedblleft" unicode="&#x201c;" horiz-adv-x="430" 
d="M236 675q-74 -112 -74 -244h-104q0 139 89 244h89zM403 675q-74 -112 -74 -244h-104q0 139 89 244h89z" />
    <glyph glyph-name="quotedblright" unicode="&#x201d;" horiz-adv-x="430" 
d="M27 431q74 112 74 244h104q0 -139 -89 -244h-89zM194 431q74 112 74 244h104q0 -139 -89 -244h-89z" />
    <glyph glyph-name="quotedblbase" unicode="&#x201e;" horiz-adv-x="430" 
d="M27 -106q74 112 74 244h104q0 -139 -89 -244h-89zM194 -106q74 112 74 244h104q0 -139 -89 -244h-89z" />
    <glyph glyph-name="bullet" unicode="&#x2022;" horiz-adv-x="383" 
d="M191 163q-51 0 -85 33.5t-34 85.5t33.5 85t85.5 33t86 -33.5t34 -84.5q0 -52 -34 -85.5t-86 -33.5z" />
    <glyph glyph-name="ellipsis" unicode="&#x2026;" horiz-adv-x="760" 
d="M137 -8q-33 0 -53.5 20.5t-20.5 51.5q0 32 21 53t53 21t53 -21t21 -53q0 -31 -21 -51.5t-53 -20.5zM380 -8q-33 0 -53.5 20.5t-20.5 51.5q0 32 21 53t53 21t53 -21t21 -53q0 -31 -21 -51.5t-53 -20.5zM623 -8q-33 0 -53.5 20.5t-20.5 51.5q0 32 21 53t53 21t53 -21
t21 -53q0 -31 -21 -51.5t-53 -20.5z" />
    <glyph glyph-name="guilsinglleft" unicode="&#x2039;" horiz-adv-x="329" 
d="M148 280l137 -183h-114l-135 184l135 183h114z" />
    <glyph glyph-name="guilsinglright" unicode="&#x203a;" horiz-adv-x="329" 
d="M181 281l-137 183h114l135 -184l-135 -183h-114z" />
    <glyph glyph-name="fraction" unicode="&#x2044;" horiz-adv-x="53" 
d="M-232 0l412 675h105l-412 -675h-105z" />
    <glyph glyph-name="uni2070" unicode="&#x2070;" 
d="M202 420q-72 0 -115 53.5t-43 141.5q0 89 43.5 143.5t115.5 54.5t115 -53.5t43 -141.5q0 -89 -43.5 -143.5t-115.5 -54.5zM203 497q32 0 50 32.5t18 88.5q0 55 -18 86.5t-50 31.5t-50.5 -32.5t-18.5 -88.5q0 -55 18.5 -86.5t50.5 -31.5z" />
    <glyph glyph-name="uni2074" unicode="&#x2074;" 
d="M227 433v66h-181v74l165 227h98v-232h52v-69h-52v-66h-82zM118 568h109v148h-7l-102 -140v-8z" />
    <glyph glyph-name="uni2075" unicode="&#x2075;" 
d="M190 420q-66 0 -119 28v76q52 -33 109 -33q34 0 52.5 14t18.5 39q0 55 -83 55q-46 0 -86 -8l27 209h217v-72h-149l-9 -67q8 2 16.5 2.5t16.5 0.5q64 0 101 -31t37 -85q0 -59 -40 -93.5t-109 -34.5z" />
    <glyph glyph-name="uni2076" unicode="&#x2076;" 
d="M206 420q-74 0 -114 46t-40 132q0 103 48 159t137 56q53 0 90 -20v-74q-40 23 -86 23q-91 0 -100 -103h8q28 34 82 34q56 0 89 -33.5t33 -89.5q0 -58 -41 -94t-106 -36zM206 488q26 0 43 17t17 44q0 28 -16 44t-43 16t-44.5 -16.5t-17.5 -43.5t17.5 -44t43.5 -17z" />
    <glyph glyph-name="uni2077" unicode="&#x2077;" 
d="M248 718v8h-177v74h271v-68l-152 -299h-95z" />
    <glyph glyph-name="uni2078" unicode="&#x2078;" 
d="M202 420q-68 0 -109.5 31t-41.5 82q0 33 17.5 56t51.5 33v8q-27 8 -41.5 28.5t-14.5 49.5q0 46 39.5 75.5t100.5 29.5t99 -29.5t38 -75.5q0 -29 -14.5 -49.5t-41.5 -28.5v-8q69 -21 69 -88q0 -52 -42 -83t-110 -31zM202 486q28 0 45 14t17 37t-17 37.5t-44 14.5
q-28 0 -45 -14.5t-17 -37.5t16.5 -37t44.5 -14zM202 653q24 0 38 13t14 34t-14 34t-37 13t-37.5 -12.5t-14.5 -33.5t14 -34.5t37 -13.5z" />
    <glyph glyph-name="uni2079" unicode="&#x2079;" 
d="M199 813q74 0 114 -46t40 -132q0 -103 -48 -159t-137 -56q-53 0 -90 20v74q40 -23 86 -23q91 0 100 103h-8q-28 -34 -82 -34q-56 0 -89 33.5t-33 89.5q0 58 41 94t106 36zM199 745q-26 0 -43 -17t-17 -44q0 -28 16 -44t43 -16t44.5 16.5t17.5 43.5t-17.5 44t-43.5 17z
" />
    <glyph glyph-name="uni2080" unicode="&#x2080;" 
d="M202 -130q-72 0 -115 53.5t-43 141.5q0 89 43.5 143.5t115.5 54.5t115 -53.5t43 -141.5q0 -89 -43.5 -143.5t-115.5 -54.5zM203 -53q32 0 50 32.5t18 88.5q0 55 -18 86.5t-50 31.5t-50.5 -32.5t-18.5 -88.5q0 -55 18.5 -86.5t50.5 -31.5z" />
    <glyph glyph-name="uni2081" unicode="&#x2081;" 
d="M193 -117v276h-8l-97 -60v82l118 69h77v-367h-90z" />
    <glyph glyph-name="uni2082" unicode="&#x2082;" 
d="M60 -51l93 79q46 38 62.5 60.5t16.5 47.5q0 23 -16.5 36.5t-44.5 13.5q-49 0 -97 -32v76q21 16 51 24.5t62 8.5q63 0 100 -32.5t37 -87.5q0 -40 -20 -73.5t-65 -67.5l-54 -41v-7h147v-71h-272v66z" />
    <glyph glyph-name="uni2083" unicode="&#x2083;" 
d="M182 -130q-72 0 -126 33v76q53 -37 115 -37q34 0 53 13.5t19 37.5q0 22 -17.5 33.5t-50.5 11.5h-57v68h58q28 0 42.5 12t14.5 34q0 19 -16 29t-43 10q-53 0 -102 -29v71q47 30 113 30q64 -1 101 -28t37 -74q0 -29 -16 -50.5t-43 -29.5v-8q33 -7 51 -30t18 -57
q0 -51 -42 -83.5t-109 -32.5z" />
    <glyph glyph-name="uni2084" unicode="&#x2084;" 
d="M227 -117v66h-181v74l165 227h98v-232h52v-69h-52v-66h-82zM118 18h109v148h-7l-102 -140v-8z" />
    <glyph glyph-name="uni2085" unicode="&#x2085;" 
d="M190 -130q-66 0 -119 28v76q52 -33 109 -33q34 0 52.5 14t18.5 39q0 55 -83 55q-46 0 -86 -8l27 209h217v-72h-149l-9 -67q8 2 16.5 2.5t16.5 0.5q64 0 101 -31t37 -85q0 -59 -40 -93.5t-109 -34.5z" />
    <glyph glyph-name="uni2086" unicode="&#x2086;" 
d="M206 -130q-74 0 -114 46t-40 132q0 103 48 159t137 56q53 0 90 -20v-74q-40 23 -86 23q-91 0 -100 -103h8q28 34 82 34q56 0 89 -33.5t33 -89.5q0 -58 -41 -94t-106 -36zM206 -62q26 0 43 17t17 44q0 28 -16 44t-43 16t-44.5 -16.5t-17.5 -43.5t17.5 -44t43.5 -17z" />
    <glyph glyph-name="uni2087" unicode="&#x2087;" 
d="M248 168v8h-177v74h271v-68l-152 -299h-95z" />
    <glyph glyph-name="uni2088" unicode="&#x2088;" 
d="M202 -130q-68 0 -109.5 31t-41.5 82q0 33 17.5 56t51.5 33v8q-27 8 -41.5 28.5t-14.5 49.5q0 46 39.5 75.5t100.5 29.5t99 -29.5t38 -75.5q0 -29 -14.5 -49.5t-41.5 -28.5v-8q69 -21 69 -88q0 -52 -42 -83t-110 -31zM202 -64q28 0 45 14t17 37t-17 37.5t-44 14.5
q-28 0 -45 -14.5t-17 -37.5t16.5 -37t44.5 -14zM202 103q24 0 38 13t14 34t-14 34t-37 13t-37.5 -12.5t-14.5 -33.5t14 -34.5t37 -13.5z" />
    <glyph glyph-name="uni2089" unicode="&#x2089;" 
d="M199 263q74 0 114 -46t40 -132q0 -103 -48 -159t-137 -56q-53 0 -90 20v74q40 -23 86 -23q91 0 100 103h-8q-28 -34 -82 -34q-56 0 -89 33.5t-33 89.5q0 58 41 94t106 36zM199 195q-26 0 -43 -17t-17 -44q0 -28 16 -44t43 -16t44.5 16.5t17.5 43.5t-17.5 44t-43.5 17z
" />
    <glyph glyph-name="Euro" unicode="&#x20ac;" horiz-adv-x="560" 
d="M235 228q18 -68 58.5 -104.5t98.5 -36.5q73 0 131 35v-101q-62 -34 -148 -34q-104 0 -173 62.5t-91 178.5h-77v75h70q-1 8 -1 16.5v17.5v17.5t1 17.5h-70v74h79q24 115 94.5 178.5t171.5 63.5q82 0 137 -33v-103q-24 17 -57 26.5t-68 9.5q-59 0 -99.5 -36t-57.5 -106h214
v-74h-224q-1 -8 -1 -16.5v-16.5q0 -25 1 -36h224v-75h-213z" />
    <glyph glyph-name="uni20BA" unicode="&#x20ba;" horiz-adv-x="560" 
d="M226 274v-176h29q161 0 161 170v19h109v-20q0 -128 -70.5 -197.5t-200.5 -69.5h-145v217l-84 -40v76l84 41v81l-84 -41v78l84 40v223h117v-166l151 73v-77l-151 -73v-81l151 74v-78z" />
    <glyph glyph-name="uni20BD" unicode="&#x20bd;" horiz-adv-x="560" 
d="M37 360h76v315h157q114 0 179.5 -52.5t65.5 -143.5q0 -95 -65.5 -149t-183.5 -54h-36v-70h168v-85h-168v-121h-117v121h-76v85h76v70h-76v84zM230 585v-219h40q63 0 98 29t35 81q0 53 -34 81t-98 28h-41z" />
    <glyph glyph-name="trademark" unicode="&#x2122;" horiz-adv-x="828" 
d="M136 318v282h-109v75h302v-75h-109v-282h-84zM371 318l24 357h99l73 -220h8l72 220h98l24 -357h-83l-10 229h-8l-64 -190h-67l-67 190h-8l-10 -229h-81z" />
    <glyph glyph-name="minus" unicode="&#x2212;" horiz-adv-x="560" 
d="M75 288v99h410v-99h-410z" />
    <glyph glyph-name="fi" unicode="&#xfb01;" horiz-adv-x="680" 
d="M110 426h-92v93h92v18q0 94 52.5 145t149.5 51q42 0 76 -12v-95q-33 11 -64 11q-94 0 -94 -96v-22h140v-93h-140v-426h-120v426zM484 519h120v-519h-120v519zM544 589q-31 0 -52 20t-21 51t21 51t52 20t52 -20t21 -51t-21 -51t-52 -20z" />
    <glyph glyph-name="fl" unicode="&#xfb02;" horiz-adv-x="680" 
d="M110 426h-92v93h92v18q0 94 52.5 145t149.5 51q42 0 76 -12v-95q-33 11 -64 11q-94 0 -94 -96v-22h140v-93h-140v-426h-120v426zM484 720h120v-720h-120v720z" />
    <glyph glyph-name="uniFEFF" unicode="&#xfeff;" horiz-adv-x="0" 
 />
    <glyph glyph-name="zero.pnum" horiz-adv-x="569" 
d="M284 -13q-117 0 -181.5 92t-64.5 258q0 167 64.5 259t181.5 92t182 -91.5t65 -258.5q0 -166 -65 -258.5t-182 -92.5zM284 88q61 0 93 63.5t32 186.5t-31.5 186t-93.5 63q-61 0 -92.5 -63.5t-31.5 -186.5t31.5 -186t92.5 -63z" />
    <glyph glyph-name="one.pnum" horiz-adv-x="427" 
d="M214 0v553h-9l-159 -95v110l183 107h104v-675h-119z" />
    <glyph glyph-name="two.pnum" horiz-adv-x="510" 
d="M34 87l177 187q65 69 90 113.5t25 91.5q0 50 -32 78.5t-86 28.5q-80 0 -150 -47v101q34 23 79 35.5t93 12.5q98 0 158 -54t60 -141q0 -68 -32.5 -131t-103.5 -134l-116 -118v-9h266v-101h-428v87z" />
    <glyph glyph-name="three.pnum" horiz-adv-x="506" 
d="M224 -13q-104 0 -186 44v107q83 -52 169 -52q66 0 102 28.5t36 81.5q0 106 -135 106h-66v96h65q58 0 88.5 26t30.5 74q0 44 -30 67.5t-87 23.5q-78 0 -148 -42v97q74 44 171 44q99 0 157 -48.5t58 -129.5q0 -101 -98 -150v-8q57 -20 87 -61.5t30 -101.5q0 -92 -66.5 -147
t-177.5 -55z" />
    <glyph glyph-name="four.pnum" horiz-adv-x="563" 
d="M339 0v142h-305v100l292 433h127v-435h75v-98h-75v-142h-114zM138 240h201v296h-9l-192 -287v-9z" />
    <glyph glyph-name="five.pnum" horiz-adv-x="517" 
d="M217 -13q-100 0 -178 44v104q38 -24 81.5 -37.5t83.5 -13.5q67 0 103.5 32.5t36.5 90.5q0 59 -42 89.5t-122 30.5q-54 0 -118 -10l47 358h331v-101h-242l-21 -161q32 4 59 4q105 0 166 -56t61 -151q0 -101 -67 -162t-179 -61z" />
    <glyph glyph-name="six.pnum" horiz-adv-x="550" 
d="M286 -13q-116 0 -177.5 80t-61.5 231q0 188 75.5 289t217.5 101q78 0 125 -28v-100q-54 30 -118 30q-91 0 -138 -62t-49 -183h9q20 38 58.5 59t88.5 21q58 0 102.5 -27.5t68.5 -75t24 -107.5q0 -69 -29.5 -121t-80.5 -79.5t-115 -27.5zM286 79q50 0 81 36t31 94t-30 93
t-81 35q-50 0 -82 -35.5t-32 -91.5q0 -59 31 -95t82 -36z" />
    <glyph glyph-name="seven.pnum" horiz-adv-x="485" 
d="M348 565v8h-311v102h434v-90l-249 -585h-128z" />
    <glyph glyph-name="eight.pnum" horiz-adv-x="554" 
d="M276 -13q-107 0 -172.5 54t-65.5 143q0 58 30 100.5t87 64.5v9q-93 45 -93 147q0 54 29 96t78.5 64.5t109.5 22.5q63 0 112 -24t75 -65.5t26 -93.5q0 -102 -93 -147v-9q57 -22 87 -64t30 -101q0 -60 -31 -104.5t-85 -68.5t-124 -24zM276 82q54 0 87 30t33 80t-32.5 80
t-85.5 30q-55 0 -87.5 -30.5t-32.5 -80.5q0 -49 32 -79t86 -30zM277 396q45 0 72.5 27t27.5 72q0 44 -28 71t-72 27q-45 0 -72.5 -27t-27.5 -72q0 -43 28 -70.5t72 -27.5z" />
    <glyph glyph-name="nine.pnum" horiz-adv-x="550" 
d="M264 688q116 0 177.5 -80t61.5 -231q0 -188 -75.5 -289t-217.5 -101q-78 0 -125 28v100q54 -30 118 -30q91 0 138 62t49 183h-9q-20 -38 -58.5 -59t-88.5 -21q-58 0 -102.5 27.5t-68.5 75t-24 107.5q0 69 29.5 121t80.5 79.5t115 27.5zM264 596q-50 0 -81 -36t-31 -94
t30 -93t81 -35q50 0 82 35.5t32 91.5q0 59 -31 95t-82 36z" />
    <glyph glyph-name="zero.dnom" 
d="M202 -13q-72 0 -115 53.5t-43 141.5q0 89 43.5 143.5t115.5 54.5t115 -53.5t43 -141.5q0 -89 -43.5 -143.5t-115.5 -54.5zM203 64q32 0 50 32.5t18 88.5q0 55 -18 86.5t-50 31.5t-50.5 -32.5t-18.5 -88.5q0 -55 18.5 -86.5t50.5 -31.5z" />
    <glyph glyph-name="one.dnom" 
d="M193 0v276h-8l-97 -60v82l118 69h77v-367h-90z" />
    <glyph glyph-name="two.dnom" 
d="M60 66l93 79q46 38 62.5 60.5t16.5 47.5q0 23 -16.5 36.5t-44.5 13.5q-49 0 -97 -32v76q21 16 51 24.5t62 8.5q63 0 100 -32.5t37 -87.5q0 -40 -20 -73.5t-65 -67.5l-54 -41v-7h147v-71h-272v66z" />
    <glyph glyph-name="three.dnom" 
d="M182 -13q-72 0 -126 33v76q53 -37 115 -37q34 0 53 13.5t19 37.5q0 22 -17.5 33.5t-50.5 11.5h-57v68h58q28 0 42.5 12t14.5 34q0 19 -16 29t-43 10q-53 0 -102 -29v71q47 30 113 30q64 -1 101 -28t37 -74q0 -29 -16 -50.5t-43 -29.5v-8q33 -7 51 -30t18 -57
q0 -51 -42 -83.5t-109 -32.5z" />
    <glyph glyph-name="four.dnom" 
d="M227 0v66h-181v74l165 227h98v-232h52v-69h-52v-66h-82zM118 135h109v148h-7l-102 -140v-8z" />
    <glyph glyph-name="five.dnom" 
d="M190 -13q-66 0 -119 28v76q52 -33 109 -33q34 0 52.5 14t18.5 39q0 55 -83 55q-46 0 -86 -8l27 209h217v-72h-149l-9 -67q8 2 16.5 2.5t16.5 0.5q64 0 101 -31t37 -85q0 -59 -40 -93.5t-109 -34.5z" />
    <glyph glyph-name="six.dnom" 
d="M206 -13q-74 0 -114 46t-40 132q0 103 48 159t137 56q53 0 90 -20v-74q-40 23 -86 23q-91 0 -100 -103h8q28 34 82 34q56 0 89 -33.5t33 -89.5q0 -58 -41 -94t-106 -36zM206 55q26 0 43 17t17 44q0 28 -16 44t-43 16t-44.5 -16.5t-17.5 -43.5t17.5 -44t43.5 -17z" />
    <glyph glyph-name="seven.dnom" 
d="M248 285v8h-177v74h271v-68l-152 -299h-95z" />
    <glyph glyph-name="eight.dnom" 
d="M202 -13q-68 0 -109.5 31t-41.5 82q0 33 17.5 56t51.5 33v8q-27 8 -41.5 28.5t-14.5 49.5q0 46 39.5 75.5t100.5 29.5t99 -29.5t38 -75.5q0 -29 -14.5 -49.5t-41.5 -28.5v-8q69 -21 69 -88q0 -52 -42 -83t-110 -31zM202 53q28 0 45 14t17 37t-17 37.5t-44 14.5
q-28 0 -45 -14.5t-17 -37.5t16.5 -37t44.5 -14zM202 220q24 0 38 13t14 34t-14 34t-37 13t-37.5 -12.5t-14.5 -33.5t14 -34.5t37 -13.5z" />
    <glyph glyph-name="nine.dnom" 
d="M199 380q74 0 114 -46t40 -132q0 -103 -48 -159t-137 -56q-53 0 -90 20v74q40 -23 86 -23q91 0 100 103h-8q-28 -34 -82 -34q-56 0 -89 33.5t-33 89.5q0 58 41 94t106 36zM199 312q-26 0 -43 -17t-17 -44q0 -28 16 -44t43 -16t44.5 16.5t17.5 43.5t-17.5 44t-43.5 17z
" />
    <glyph glyph-name="zero.numr" 
d="M202 295q-72 0 -115 53.5t-43 141.5q0 89 43.5 143.5t115.5 54.5t115 -53.5t43 -141.5q0 -89 -43.5 -143.5t-115.5 -54.5zM203 372q32 0 50 32.5t18 88.5q0 55 -18 86.5t-50 31.5t-50.5 -32.5t-18.5 -88.5q0 -55 18.5 -86.5t50.5 -31.5z" />
    <glyph glyph-name="one.numr" 
d="M193 308v276h-8l-97 -60v82l118 69h77v-367h-90z" />
    <glyph glyph-name="two.numr" 
d="M60 374l93 79q46 38 62.5 60.5t16.5 47.5q0 23 -16.5 36.5t-44.5 13.5q-49 0 -97 -32v76q21 16 51 24.5t62 8.5q63 0 100 -32.5t37 -87.5q0 -40 -20 -73.5t-65 -67.5l-54 -41v-7h147v-71h-272v66z" />
    <glyph glyph-name="three.numr" 
d="M182 295q-72 0 -126 33v76q53 -37 115 -37q34 0 53 13.5t19 37.5q0 22 -17.5 33.5t-50.5 11.5h-57v68h58q28 0 42.5 12t14.5 34q0 19 -16 29t-43 10q-53 0 -102 -29v71q47 30 113 30q64 -1 101 -28t37 -74q0 -29 -16 -50.5t-43 -29.5v-8q33 -7 51 -30t18 -57
q0 -51 -42 -83.5t-109 -32.5z" />
    <glyph glyph-name="four.numr" 
d="M227 308v66h-181v74l165 227h98v-232h52v-69h-52v-66h-82zM118 443h109v148h-7l-102 -140v-8z" />
    <glyph glyph-name="five.numr" 
d="M190 295q-66 0 -119 28v76q52 -33 109 -33q34 0 52.5 14t18.5 39q0 55 -83 55q-46 0 -86 -8l27 209h217v-72h-149l-9 -67q8 2 16.5 2.5t16.5 0.5q64 0 101 -31t37 -85q0 -59 -40 -93.5t-109 -34.5z" />
    <glyph glyph-name="six.numr" 
d="M206 295q-74 0 -114 46t-40 132q0 103 48 159t137 56q53 0 90 -20v-74q-40 23 -86 23q-91 0 -100 -103h8q28 34 82 34q56 0 89 -33.5t33 -89.5q0 -58 -41 -94t-106 -36zM206 363q26 0 43 17t17 44q0 28 -16 44t-43 16t-44.5 -16.5t-17.5 -43.5t17.5 -44t43.5 -17z" />
    <glyph glyph-name="seven.numr" 
d="M248 593v8h-177v74h271v-68l-152 -299h-95z" />
    <glyph glyph-name="eight.numr" 
d="M202 295q-68 0 -109.5 31t-41.5 82q0 33 17.5 56t51.5 33v8q-27 8 -41.5 28.5t-14.5 49.5q0 46 39.5 75.5t100.5 29.5t99 -29.5t38 -75.5q0 -29 -14.5 -49.5t-41.5 -28.5v-8q69 -21 69 -88q0 -52 -42 -83t-110 -31zM202 361q28 0 45 14t17 37t-17 37.5t-44 14.5
q-28 0 -45 -14.5t-17 -37.5t16.5 -37t44.5 -14zM202 528q24 0 38 13t14 34t-14 34t-37 13t-37.5 -12.5t-14.5 -33.5t14 -34.5t37 -13.5z" />
    <glyph glyph-name="nine.numr" 
d="M199 688q74 0 114 -46t40 -132q0 -103 -48 -159t-137 -56q-53 0 -90 20v74q40 -23 86 -23q91 0 100 103h-8q-28 -34 -82 -34q-56 0 -89 33.5t-33 89.5q0 58 41 94t106 36zM199 620q-26 0 -43 -17t-17 -44q0 -28 16 -44t43 -16t44.5 16.5t17.5 43.5t-17.5 44t-43.5 17z
" />
    <glyph glyph-name="periodcentered.loclCAT" horiz-adv-x="274" 
d="M137 211q-33 0 -53.5 20.5t-20.5 51.5q0 32 21 53t53 21t53 -21t21 -53q0 -31 -21 -51.5t-53 -20.5z" />
    <glyph glyph-name="periodcentered.loclCAT.cap" horiz-adv-x="274" 
d="M137 289q-33 0 -53.5 20.5t-20.5 51.5q0 32 21 53t53 21t53 -21t21 -53q0 -31 -21 -51.5t-53 -20.5z" />
    <glyph glyph-name="IJacute" horiz-adv-x="759" 
d="M83 0v675h123v-675h-123zM459 -13q-76 0 -131 28v106q49 -28 111 -28q61 0 90.5 33.5t29.5 103.5v445h123v-434q0 -126 -56.5 -190t-166.5 -64zM557 741l120 146h135l-144 -146h-111zM81 741l120 146h135l-144 -146h-111z" />
    <glyph glyph-name="ijacute" horiz-adv-x="544" 
d="M76 519h120v-519h-120v519zM285 -198q-37 0 -71 12v92q27 -8 51 -8q42 0 62.5 23.5t20.5 73.5v524h120v-526q0 -92 -47.5 -141.5t-135.5 -49.5zM179 589h-106l107 156h131zM451 589h-106l107 156h131z" />
    <glyph glyph-name="uni0327.cap" horiz-adv-x="0" 
d="M40 12l-19 -74q46 -2 73.5 -28t27.5 -65q0 -51 -37.5 -79.5t-105.5 -28.5q-31 0 -64 10v66q30 -8 54 -8q29 0 45.5 11t16.5 31q0 37 -67 37h-29l33 128h72z" />
    <glyph glyph-name="uni0326.cap" horiz-adv-x="0" 
d="M-107 -259q26 43 40.5 94t14.5 101h105q0 -50 -18.5 -102t-50.5 -93h-91z" />
    <glyph glyph-name="acutecomb.cap" horiz-adv-x="0" 
d="M-63 741l120 146h135l-144 -146h-111z" />
    <glyph glyph-name="gravecomb.cap" horiz-adv-x="0" 
d="M-46 741l-144 146h135l120 -146h-111z" />
    <glyph glyph-name="uni0302.cap" horiz-adv-x="0" 
d="M73 741l-73 85l-73 -85h-107l124 146h112l124 -146h-107z" />
    <glyph glyph-name="tildecomb.cap" horiz-adv-x="0" 
d="M74 735q-24 0 -43 9.5t-35.5 21.5t-31.5 21.5t-29 9.5q-31 0 -31 -51v-9h-81v11q0 63 27 98t76 35q24 0 43 -9.5t35.5 -21.5t31.5 -21.5t29 -9.5q31 0 31 49v11h81v-11q0 -63 -27 -98t-76 -35z" />
    <glyph glyph-name="uni030C.cap" horiz-adv-x="0" 
d="M-180 887h107l73 -85l73 85h107l-124 -146h-112z" />
    <glyph glyph-name="uni0308.cap" horiz-adv-x="0" 
d="M-110 734q-28 0 -47 18.5t-19 46.5t19 47t47 19q29 0 48 -19t19 -47q0 -27 -19 -46t-48 -19zM109 734q-28 0 -47 18.5t-19 46.5t19 47t47 19q29 0 48 -19t19 -47q0 -27 -19 -46t-48 -19z" />
    <glyph glyph-name="uni0306.cap" horiz-adv-x="0" 
d="M0 731q-77 0 -119 40t-42 112h85q0 -37 20.5 -58.5t55.5 -21.5t55.5 21.5t20.5 58.5h85q0 -70 -43 -111t-118 -41z" />
    <glyph glyph-name="uni030A.cap" horiz-adv-x="0" 
d="M0 721q-44 0 -73.5 28t-29.5 70q0 43 29.5 70.5t73.5 27.5t73.5 -28t29.5 -70q0 -43 -29.5 -70.5t-73.5 -27.5zM0 774q19 0 31.5 12.5t12.5 32.5t-12.5 32.5t-31.5 12.5t-31.5 -12.5t-12.5 -32.5t12.5 -32.5t31.5 -12.5z" />
    </font>
</defs>
</svg>
